<svg version="1.1" viewBox="0.0 0.0 960.0 720.0" fill="none" stroke="none" stroke-linecap="square" stroke-miterlimit="10" xmlns:xlink="http://www.w3.org/1999/xlink" xmlns="http://www.w3.org/2000/svg"><clipPath id="p.0"><path d="m0 0l960.0 0l0 720.0l-960.0 0l0 -720.0z" clip-rule="nonzero"/></clipPath><g clip-path="url(#p.0)"><path fill="#000000" fill-opacity="0.0" d="m0 0l960.0 0l0 720.0l-960.0 0z" fill-rule="evenodd"/><path fill="#6d9eeb" d="m57.80052 333.49606l141.32283 0l0 53.007874l-141.32283 0z" fill-rule="evenodd"/><path stroke="#ffffff" stroke-width="1.0" stroke-linejoin="round" stroke-linecap="butt" d="m57.80052 333.49606l141.32283 0l0 53.007874l-141.32283 0z" fill-rule="evenodd"/><path fill="#ffffff" d="m108.493195 356.84186l0 -9.203125l-5.859375 0l0 -1.640625l13.4375 0l0 1.640625l-5.859375 0l0 9.203125l7.265625 0l0 1.625l-16.171875 0l0 -1.625l7.1875 0zm28.0625 -10.015625l0 1.40625l-5.34375 0l0 2.75l4.671875 0l0 1.40625l-4.671875 0l0 2.453125l4.96875 0l0 1.40625l-4.96875 0l0 4.15625l-1.484375 0l0 -12.171875l-0.75 0q-1.1875 2.515625 -2.515625 3.859375l-1.40625 -1.046875q2.96875 -3.109375 3.703125 -7.34375l1.5625 0.453125q0.4375 0.21875 -0.078125 0.359375q-0.140625 0.75 -0.734375 2.3125l7.046875 0zm-16.625 5.1875q3.265625 -3.78125 4.296875 -8.15625l1.640625 0.515625q0.4375 0.296875 -0.078125 0.375q-0.515625 1.703125 -1.484375 3.703125l0.453125 0.15625q0.296875 0.296875 -0.234375 0.359375l0 11.4375l-1.484375 0l0 -9.65625q-0.8125 1.34375 -1.921875 2.53125l-1.1875 -1.265625zm34.734375 -5.5625l-12.84375 0l0 10.984375l13.4375 0l0 1.640625l-13.4375 0l0 1.03125l-1.703125 0l0 -15.296875l14.546875 0l0 1.640625zm-6.09375 4.234375q1.421875 -1.71875 2.375 -3.71875l1.484375 0.8125q0.671875 0.234375 -0.0625 0.53125q-0.671875 1.484375 -2.234375 3.40625q1.78125 1.109375 4.15625 3.1875l-1.265625 1.5625q-2.078125 -1.859375 -4.078125 -3.40625q-1.78125 1.84375 -5.421875 3.859375l-1.03125 -1.484375q3.265625 -1.78125 4.890625 -3.421875q-1.546875 -1.1875 -4.078125 -2.59375l0.96875 -1.265625q2.296875 1.1875 4.296875 2.53125z" fill-rule="nonzero"/><path fill="#ffffff" d="m78.19809 375.8l-2.53125 -9.546875l1.296875 0l1.453125 6.265625q0.234375 0.984375 0.40625 1.953125q0.359375 -1.53125 0.421875 -1.765625l1.828125 -6.453125l1.515625 0l1.375 4.828125q0.515625 1.796875 0.734375 3.390625q0.1875 -0.90625 0.484375 -2.078125l1.484375 -6.140625l1.28125 0l-2.625 9.546875l-1.21875 0l-2.0 -7.265625q-0.265625 -0.921875 -0.3125 -1.125q-0.140625 0.65625 -0.28125 1.125l-2.015625 7.265625l-1.296875 0zm10.329727 -3.453125q0 -1.921875 1.078125 -2.84375q0.890625 -0.765625 2.171875 -0.765625q1.421875 0 2.328125 0.9375q0.90625 0.921875 0.90625 2.578125q0 1.328125 -0.40625 2.09375q-0.390625 0.765625 -1.15625 1.1875q-0.765625 0.421875 -1.671875 0.421875q-1.453125 0 -2.359375 -0.921875q-0.890625 -0.9375 -0.890625 -2.6875zm1.203125 0q0 1.328125 0.578125 1.984375q0.59375 0.65625 1.46875 0.65625q0.875 0 1.453125 -0.65625q0.578125 -0.671875 0.578125 -2.03125q0 -1.28125 -0.59375 -1.9375q-0.578125 -0.65625 -1.4375 -0.65625q-0.875 0 -1.46875 0.65625q-0.578125 0.65625 -0.578125 1.984375zm6.6312256 3.453125l0 -6.90625l1.0625 0l0 1.046875q0.40625 -0.734375 0.734375 -0.96875q0.34375 -0.234375 0.765625 -0.234375q0.59375 0 1.203125 0.375l-0.40625 1.078125q-0.4375 -0.25 -0.859375 -0.25q-0.390625 0 -0.703125 0.234375q-0.296875 0.234375 -0.421875 0.640625q-0.203125 0.625 -0.203125 1.359375l0 3.625l-1.171875 0zm4.4696198 0l0 -9.546875l1.171875 0l0 5.453125l2.765625 -2.8125l1.515625 0l-2.640625 2.5625l2.90625 4.34375l-1.4375 0l-2.28125 -3.53125l-0.828125 0.796875l0 2.734375l-1.171875 0zm6.6640625 -8.1875l0 -1.359375l1.171875 0l0 1.359375l-1.171875 0zm0 8.1875l0 -6.90625l1.171875 0l0 6.90625l-1.171875 0zm2.945465 0l0 -6.90625l1.0625 0l0 0.984375q0.75 -1.140625 2.1875 -1.140625q0.625 0 1.15625 0.21875q0.53125 0.21875 0.78125 0.59375q0.265625 0.359375 0.375 0.859375q0.0625 0.328125 0.0625 1.140625l0 4.25l-1.171875 0l0 -4.203125q0 -0.71875 -0.140625 -1.0625q-0.140625 -0.359375 -0.484375 -0.5625q-0.34375 -0.21875 -0.8125 -0.21875q-0.75 0 -1.296875 0.46875q-0.546875 0.46875 -0.546875 1.796875l0 3.78125l-1.171875 0zm7.1937256 0.578125l1.140625 0.15625q0.078125 0.53125 0.40625 0.78125q0.4375 0.3125 1.1875 0.3125q0.8125 0 1.25 -0.328125q0.453125 -0.3125 0.609375 -0.90625q0.09375 -0.359375 0.078125 -1.5q-0.765625 0.90625 -1.90625 0.90625q-1.4375 0 -2.21875 -1.03125q-0.78125 -1.03125 -0.78125 -2.46875q0 -0.984375 0.359375 -1.8125q0.359375 -0.84375 1.03125 -1.296875q0.6875 -0.453125 1.609375 -0.453125q1.21875 0 2.015625 0.984375l0 -0.828125l1.078125 0l0 5.96875q0 1.609375 -0.328125 2.28125q-0.328125 0.6875 -1.046875 1.078125q-0.703125 0.390625 -1.75 0.390625q-1.234375 0 -2.0 -0.5625q-0.75 -0.5625 -0.734375 -1.671875zm0.984375 -4.15625q0 1.359375 0.53125 1.984375q0.546875 0.625 1.359375 0.625q0.796875 0 1.34375 -0.625q0.546875 -0.625 0.546875 -1.953125q0 -1.265625 -0.5625 -1.90625q-0.5625 -0.640625 -1.359375 -0.640625q-0.765625 0 -1.3125 0.640625q-0.546875 0.625 -0.546875 1.875zm10.506088 3.578125l0 -9.546875l3.28125 0q1.109375 0 1.703125 0.140625q0.8125 0.1875 1.390625 0.6875q0.765625 0.640625 1.140625 1.640625q0.375 0.984375 0.375 2.25q0 1.09375 -0.265625 1.9375q-0.25 0.828125 -0.65625 1.390625q-0.390625 0.546875 -0.859375 0.859375q-0.46875 0.3125 -1.140625 0.484375q-0.65625 0.15625 -1.53125 0.15625l-3.4375 0zm1.265625 -1.125l2.03125 0q0.9375 0 1.46875 -0.171875q0.546875 -0.1875 0.875 -0.5q0.4375 -0.453125 0.6875 -1.203125q0.25 -0.765625 0.25 -1.84375q0 -1.5 -0.5 -2.296875q-0.484375 -0.8125 -1.1875 -1.078125q-0.5 -0.203125 -1.625 -0.203125l-2.0 0l0 7.296875zm8.218903 -7.0625l0 -1.359375l1.171875 0l0 1.359375l-1.171875 0zm0 8.1875l0 -6.90625l1.171875 0l0 6.90625l-1.171875 0zm2.92984 0l0 -6.90625l1.0625 0l0 1.046875q0.40625 -0.734375 0.734375 -0.96875q0.34375 -0.234375 0.765625 -0.234375q0.59375 0 1.203125 0.375l-0.40625 1.078125q-0.4375 -0.25 -0.859375 -0.25q-0.390625 0 -0.703125 0.234375q-0.296875 0.234375 -0.421875 0.640625q-0.203125 0.625 -0.203125 1.359375l0 3.625l-1.171875 0zm9.18837 -2.21875l1.203125 0.140625q-0.28125 1.0625 -1.0625 1.65625q-0.765625 0.578125 -1.96875 0.578125q-1.515625 0 -2.40625 -0.9375q-0.890625 -0.9375 -0.890625 -2.609375q0 -1.75 0.890625 -2.703125q0.90625 -0.96875 2.34375 -0.96875q1.390625 0 2.265625 0.9375q0.875 0.9375 0.875 2.65625q0 0.109375 0 0.3125l-5.15625 0q0.0625 1.140625 0.640625 1.75q0.578125 0.59375 1.4375 0.59375q0.65625 0 1.109375 -0.328125q0.453125 -0.34375 0.71875 -1.078125zm-3.84375 -1.90625l3.859375 0q-0.078125 -0.859375 -0.4375 -1.296875q-0.5625 -0.6875 -1.453125 -0.6875q-0.8125 0 -1.359375 0.546875q-0.546875 0.53125 -0.609375 1.4375zm11.037476 1.59375l1.15625 0.15625q-0.1875 1.1875 -0.96875 1.859375q-0.78125 0.671875 -1.921875 0.671875q-1.40625 0 -2.28125 -0.921875q-0.859375 -0.9375 -0.859375 -2.65625q0 -1.125 0.375 -1.96875q0.375 -0.84375 1.125 -1.25q0.765625 -0.421875 1.65625 -0.421875q1.125 0 1.84375 0.578125q0.71875 0.5625 0.921875 1.609375l-1.140625 0.171875q-0.171875 -0.703125 -0.59375 -1.046875q-0.40625 -0.359375 -0.984375 -0.359375q-0.890625 0 -1.453125 0.640625q-0.546875 0.640625 -0.546875 2.0q0 1.40625 0.53125 2.03125q0.546875 0.625 1.40625 0.625q0.6875 0 1.140625 -0.421875q0.46875 -0.421875 0.59375 -1.296875zm4.7109375 1.484375l0.171875 1.03125q-0.5 0.109375 -0.890625 0.109375q-0.640625 0 -1.0 -0.203125q-0.34375 -0.203125 -0.484375 -0.53125q-0.140625 -0.328125 -0.140625 -1.390625l0 -3.96875l-0.859375 0l0 -0.90625l0.859375 0l0 -1.71875l1.171875 -0.703125l0 2.421875l1.171875 0l0 0.90625l-1.171875 0l0 4.046875q0 0.5 0.046875 0.640625q0.0625 0.140625 0.203125 0.234375q0.140625 0.078125 0.40625 0.078125q0.203125 0 0.515625 -0.046875zm0.7029877 -2.40625q0 -1.921875 1.078125 -2.84375q0.890625 -0.765625 2.171875 -0.765625q1.421875 0 2.328125 0.9375q0.90625 0.921875 0.90625 2.578125q0 1.328125 -0.40625 2.09375q-0.390625 0.765625 -1.15625 1.1875q-0.765625 0.421875 -1.671875 0.421875q-1.453125 0 -2.359375 -0.921875q-0.890625 -0.9375 -0.890625 -2.6875zm1.203125 0q0 1.328125 0.578125 1.984375q0.59375 0.65625 1.46875 0.65625q0.875 0 1.453125 -0.65625q0.578125 -0.671875 0.578125 -2.03125q0 -1.28125 -0.59375 -1.9375q-0.578125 -0.65625 -1.4375 -0.65625q-0.875 0 -1.46875 0.65625q-0.578125 0.65625 -0.578125 1.984375zm6.6312256 3.453125l0 -6.90625l1.0625 0l0 1.046875q0.40625 -0.734375 0.734375 -0.96875q0.34375 -0.234375 0.765625 -0.234375q0.59375 0 1.203125 0.375l-0.40625 1.078125q-0.4375 -0.25 -0.859375 -0.25q-0.390625 0 -0.703125 0.234375q-0.296875 0.234375 -0.421875 0.640625q-0.203125 0.625 -0.203125 1.359375l0 3.625l-1.171875 0zm4.4071198 2.65625l-0.125 -1.09375q0.375 0.109375 0.65625 0.109375q0.390625 0 0.625 -0.140625q0.234375 -0.125 0.390625 -0.359375q0.109375 -0.171875 0.359375 -0.875q0.03125 -0.09375 0.109375 -0.28125l-2.625 -6.921875l1.265625 0l1.4375 4.0q0.28125 0.765625 0.5 1.59375q0.203125 -0.796875 0.46875 -1.578125l1.484375 -4.015625l1.171875 0l-2.625 7.015625q-0.421875 1.140625 -0.65625 1.578125q-0.3125 0.578125 -0.71875 0.84375q-0.40625 0.28125 -0.96875 0.28125q-0.328125 0 -0.75 -0.15625z" fill-rule="nonzero"/><path fill="#f6b26b" d="m298.59302 333.49606l141.32285 0l0 53.007874l-141.32285 0z" fill-rule="evenodd"/><path stroke="#ffffff" stroke-width="1.0" stroke-linejoin="round" stroke-linecap="butt" d="m298.59302 333.49606l141.32285 0l0 53.007874l-141.32285 0z" fill-rule="evenodd"/><path fill="#ffffff" d="m355.8638 353.82623q-0.078125 1.375 -0.078125 3.125q0 1.75 0.078125 3.578125l-1.453125 0l0 -0.953125l-8.53125 0l0 0.953125l-1.453125 0q0.078125 -1.75 0.078125 -3.5q0 -1.828125 -0.078125 -3.203125l11.4375 0zm-10.78125 -8.25q0.578125 -1.15625 0.65625 -1.8125q0.71875 0.21875 1.53125 0.4375q-0.296875 0.296875 -0.8125 1.375q2.703125 0 3.875 -0.0625l0 1.15625q-1.171875 -0.0625 -4.453125 -0.0625q-0.5 0.875 -1.15625 1.890625l1.890625 0l0 -1.171875l1.3125 0l0 1.09375q0.9375 0 2.1875 -0.0625l0 1.09375q-1.25 -0.078125 -2.1875 -0.078125l0 1.171875q1.015625 -0.078125 2.109375 -0.21875q-0.078125 0.65625 -0.078125 1.09375q-1.15625 0.140625 -2.03125 0.21875l0 1.453125l-1.3125 0l0 -1.3125q-3.0625 0.21875 -4.015625 0.4375l-0.28125 -1.3125q1.09375 -0.078125 4.296875 -0.21875l0 -1.234375q-0.8125 0 -1.578125 0.078125q-0.75 0.0625 -1.5625 0.28125q-0.28125 -0.65625 -0.578125 -1.234375q0.359375 -0.15625 0.796875 -0.625q0.4375 -0.46875 0.875 -1.34375q-1.015625 0 -2.03125 0.0625l0 -1.15625q1.09375 0.0625 2.546875 0.0625zm12.390625 0q-1.171875 0.078125 -2.265625 0.1875q-1.09375 0.109375 -2.625 0.25l0 1.75q4.296875 0 5.171875 -0.0625l0 1.234375q-0.796875 -0.078125 -2.109375 -0.078125q0 3.0625 0.078125 4.15625l-1.453125 0q0.0625 -1.09375 0.0625 -4.15625l-1.75 0q-0.140625 2.625 -1.53125 4.234375q-0.65625 -0.359375 -1.3125 -0.65625q1.171875 -1.3125 1.34375 -2.6875q0.1875 -1.390625 0.1875 -2.421875q0 -1.09375 -0.03125 -1.5625q-0.03125 -0.46875 -0.109375 -0.765625q1.75 -0.078125 3.09375 -0.25q1.34375 -0.1875 2.515625 -0.546875q0.140625 0.65625 0.734375 1.375zm-3.0625 11.59375l-8.53125 0l0 1.453125l8.53125 0l0 -1.453125zm0 -2.265625l-8.53125 0l0 1.3125l8.53125 0l0 -1.3125z" fill-rule="nonzero"/><path fill="#ffffff" d="m363.59818 353.65436q-1.640625 1.625 -2.3125 2.0l-0.8125 -1.5625q1.78125 -1.109375 3.125 -2.890625l0 -1.34375l0.890625 0.234375q0.953125 -1.484375 1.484375 -3.046875l-5.046875 0l0 -1.40625l5.40625 0q0.234375 -0.671875 0.53125 -2.078125l1.625 0.4375q0.296875 0.296875 -0.21875 0.375l-0.296875 1.265625l8.984375 0l0 1.40625l-9.4375 0q-0.8125 2.515625 -2.4375 4.828125l0 8.609375l-1.484375 0l0 -6.828125zm4.078125 -4.828125l6.75 0l0.21875 -0.21875l1.1875 0.953125q0.453125 0.453125 -0.296875 0.59375l-2.8125 2.234375l0 1.109375l4.671875 0l0 1.40625l-4.671875 0l0 4.234375q0 1.1875 -1.1875 1.1875l-1.484375 0l-0.21875 -1.40625l1.109375 0q0.296875 0 0.296875 -0.296875l0 -3.71875l-5.125 0l0 -1.40625l5.125 0l0 -2.15625l0.734375 0.078125l1.265625 -1.1875l-5.5625 0l0 -1.40625zm27.609375 -2.375l-12.84375 0l0 10.984375l13.4375 0l0 1.640625l-13.4375 0l0 1.03125l-1.703125 0l0 -15.296875l14.546875 0l0 1.640625zm-6.09375 4.234375q1.421875 -1.71875 2.375 -3.71875l1.484375 0.8125q0.671875 0.234375 -0.0625 0.53125q-0.671875 1.484375 -2.234375 3.40625q1.78125 1.109375 4.15625 3.1875l-1.265625 1.5625q-2.078125 -1.859375 -4.078125 -3.40625q-1.78125 1.84375 -5.421875 3.859375l-1.03125 -1.484375q3.265625 -1.78125 4.890625 -3.421875q-1.546875 -1.1875 -4.078125 -2.59375l0.96875 -1.265625q2.296875 1.1875 4.296875 2.53125z" fill-rule="nonzero"/><path fill="#ffffff" d="m331.6925 372.7375l1.203125 -0.109375q0.078125 0.71875 0.390625 1.1875q0.3125 0.453125 0.953125 0.734375q0.65625 0.28125 1.46875 0.28125q0.71875 0 1.265625 -0.21875q0.5625 -0.21875 0.828125 -0.578125q0.265625 -0.375 0.265625 -0.828125q0 -0.453125 -0.265625 -0.78125q-0.25 -0.328125 -0.84375 -0.5625q-0.390625 -0.15625 -1.703125 -0.46875q-1.3125 -0.3125 -1.84375 -0.59375q-0.671875 -0.359375 -1.015625 -0.890625q-0.328125 -0.53125 -0.328125 -1.1875q0 -0.71875 0.40625 -1.34375q0.40625 -0.625 1.1875 -0.953125q0.796875 -0.328125 1.765625 -0.328125q1.046875 0 1.859375 0.34375q0.8125 0.34375 1.25 1.015625q0.4375 0.65625 0.46875 1.484375l-1.203125 0.09375q-0.109375 -0.90625 -0.671875 -1.359375q-0.5625 -0.46875 -1.65625 -0.46875q-1.140625 0 -1.671875 0.421875q-0.515625 0.421875 -0.515625 1.015625q0 0.515625 0.359375 0.84375q0.375 0.328125 1.90625 0.6875q1.546875 0.34375 2.109375 0.59375q0.84375 0.390625 1.234375 0.984375q0.390625 0.578125 0.390625 1.359375q0 0.75 -0.4375 1.4375q-0.421875 0.671875 -1.25 1.046875q-0.8125 0.359375 -1.828125 0.359375q-1.296875 0 -2.171875 -0.375q-0.875 -0.375 -1.375 -1.125q-0.5 -0.765625 -0.53125 -1.71875zm11.73349 2.015625l0.171875 1.03125q-0.5 0.109375 -0.890625 0.109375q-0.640625 0 -1.0 -0.203125q-0.34375 -0.203125 -0.484375 -0.53125q-0.140625 -0.328125 -0.140625 -1.390625l0 -3.96875l-0.859375 0l0 -0.90625l0.859375 0l0 -1.71875l1.171875 -0.703125l0 2.421875l1.171875 0l0 0.90625l-1.171875 0l0 4.046875q0 0.5 0.046875 0.640625q0.0625 0.140625 0.203125 0.234375q0.140625 0.078125 0.40625 0.078125q0.203125 0 0.515625 -0.046875zm5.656128 0.1875q-0.65625 0.5625 -1.265625 0.796875q-0.59375 0.21875 -1.28125 0.21875q-1.140625 0 -1.75 -0.546875q-0.609375 -0.5625 -0.609375 -1.4375q0 -0.5 0.21875 -0.921875q0.234375 -0.421875 0.609375 -0.671875q0.375 -0.25 0.84375 -0.390625q0.34375 -0.078125 1.046875 -0.171875q1.421875 -0.171875 2.09375 -0.40625q0 -0.234375 0 -0.296875q0 -0.71875 -0.328125 -1.015625q-0.453125 -0.390625 -1.34375 -0.390625q-0.8125 0 -1.21875 0.296875q-0.390625 0.28125 -0.578125 1.015625l-1.140625 -0.15625q0.15625 -0.734375 0.515625 -1.1875q0.359375 -0.453125 1.03125 -0.6875q0.671875 -0.25 1.5625 -0.25q0.890625 0 1.4375 0.203125q0.5625 0.203125 0.8125 0.53125q0.265625 0.3125 0.375 0.796875q0.046875 0.296875 0.046875 1.078125l0 1.5625q0 1.625 0.078125 2.0625q0.078125 0.4375 0.296875 0.828125l-1.21875 0q-0.1875 -0.359375 -0.234375 -0.859375zm-0.09375 -2.609375q-0.640625 0.265625 -1.921875 0.4375q-0.71875 0.109375 -1.015625 0.25q-0.296875 0.125 -0.46875 0.375q-0.15625 0.25 -0.15625 0.546875q0 0.46875 0.34375 0.78125q0.359375 0.3125 1.046875 0.3125q0.671875 0 1.203125 -0.296875q0.53125 -0.296875 0.78125 -0.8125q0.1875 -0.390625 0.1875 -1.171875l0 -0.421875zm2.7718506 4.046875l1.140625 0.15625q0.078125 0.53125 0.40625 0.78125q0.4375 0.3125 1.1875 0.3125q0.8125 0 1.25 -0.328125q0.453125 -0.3125 0.609375 -0.90625q0.09375 -0.359375 0.078125 -1.5q-0.765625 0.90625 -1.90625 0.90625q-1.4375 0 -2.21875 -1.03125q-0.78125 -1.03125 -0.78125 -2.46875q0 -0.984375 0.359375 -1.8125q0.359375 -0.84375 1.03125 -1.296875q0.6875 -0.453125 1.609375 -0.453125q1.21875 0 2.015625 0.984375l0 -0.828125l1.078125 0l0 5.96875q0 1.609375 -0.328125 2.28125q-0.328125 0.6875 -1.046875 1.078125q-0.703125 0.390625 -1.75 0.390625q-1.234375 0 -2.0 -0.5625q-0.75 -0.5625 -0.734375 -1.671875zm0.984375 -4.15625q0 1.359375 0.53125 1.984375q0.546875 0.625 1.359375 0.625q0.796875 0 1.34375 -0.625q0.546875 -0.625 0.546875 -1.953125q0 -1.265625 -0.5625 -1.90625q-0.5625 -0.640625 -1.359375 -0.640625q-0.765625 0 -1.3125 0.640625q-0.546875 0.625 -0.546875 1.875zm11.381195 1.359375l1.203125 0.140625q-0.28125 1.0625 -1.0625 1.65625q-0.765625 0.578125 -1.9687195 0.578125q-1.515625 0 -2.40625 -0.9375q-0.890625 -0.9375 -0.890625 -2.609375q0 -1.75 0.890625 -2.703125q0.90625 -0.96875 2.34375 -0.96875q1.3905945 0 2.2655945 0.9375q0.875 0.9375 0.875 2.65625q0 0.109375 0 0.3125l-5.1562195 0q0.0625 1.140625 0.640625 1.75q0.578125 0.59375 1.4375 0.59375q0.6562195 0 1.1093445 -0.328125q0.453125 -0.34375 0.71875 -1.078125zm-3.8437195 -1.90625l3.8593445 0q-0.078125 -0.859375 -0.4375 -1.296875q-0.5625 -0.6875 -1.4530945 -0.6875q-0.8125 0 -1.359375 0.546875q-0.546875 0.53125 -0.609375 1.4375zm8.77182 6.9375q-0.984375 -1.234375 -1.65625 -2.875q-0.65625 -1.640625 -0.65625 -3.390625q0 -1.546875 0.5 -2.96875q0.578125 -1.640625 1.8125 -3.28125l0.828125 0q-0.78125 1.359375 -1.03125 1.9375q-0.40625 0.890625 -0.625 1.875q-0.28125 1.21875 -0.28125 2.4375q0 3.140625 1.9375 6.265625l-0.828125 0zm2.563385 -2.8125l0 -9.546875l1.25 0l0 9.546875l-1.25 0zm3.3279724 0l0 -6.90625l1.0625 0l0 0.984375q0.75 -1.140625 2.1875 -1.140625q0.625 0 1.15625 0.21875q0.53125 0.21875 0.78125 0.59375q0.265625 0.359375 0.375 0.859375q0.0625 0.328125 0.0625 1.140625l0 4.25l-1.171875 0l0 -4.203125q0 -0.71875 -0.140625 -1.0625q-0.140625 -0.359375 -0.484375 -0.5625q-0.34375 -0.21875 -0.8125 -0.21875q-0.75 0 -1.296875 0.46875q-0.546875 0.46875 -0.546875 1.796875l0 3.78125l-1.171875 0zm11.896851 0l0 -0.875q-0.65625 1.03125 -1.9375 1.03125q-0.8125 0 -1.515625 -0.453125q-0.6875 -0.453125 -1.078125 -1.265625q-0.375 -0.828125 -0.375 -1.890625q0 -1.03125 0.34375 -1.875q0.34375 -0.84375 1.03125 -1.28125q0.703125 -0.453125 1.546875 -0.453125q0.625 0 1.109375 0.265625q0.5 0.25 0.796875 0.671875l0 -3.421875l1.171875 0l0 9.546875l-1.09375 0zm-3.703125 -3.453125q0 1.328125 0.5625 1.984375q0.5625 0.65625 1.328125 0.65625q0.765625 0 1.296875 -0.625q0.53125 -0.625 0.53125 -1.90625q0 -1.421875 -0.546875 -2.078125q-0.546875 -0.671875 -1.34375 -0.671875q-0.78125 0 -1.3125 0.640625q-0.515625 0.625 -0.515625 2.0zm11.365601 1.234375l1.203125 0.140625q-0.28125 1.0625 -1.0625 1.65625q-0.765625 0.578125 -1.96875 0.578125q-1.515625 0 -2.40625 -0.9375q-0.890625 -0.9375 -0.890625 -2.609375q0 -1.75 0.890625 -2.703125q0.90625 -0.96875 2.34375 -0.96875q1.390625 0 2.265625 0.9375q0.875 0.9375 0.875 2.65625q0 0.109375 0 0.3125l-5.15625 0q0.0625 1.140625 0.640625 1.75q0.578125 0.59375 1.4375 0.59375q0.65625 0 1.109375 -0.328125q0.453125 -0.34375 0.71875 -1.078125zm-3.84375 -1.90625l3.859375 0q-0.078125 -0.859375 -0.4375 -1.296875q-0.5625 -0.6875 -1.453125 -0.6875q-0.8125 0 -1.359375 0.546875q-0.546875 0.53125 -0.609375 1.4375zm5.7406006 4.125l2.53125 -3.59375l-2.34375 -3.3125l1.46875 0l1.0625 1.609375q0.296875 0.46875 0.484375 0.78125q0.28125 -0.4375 0.515625 -0.765625l1.171875 -1.625l1.40625 0l-2.390625 3.25l2.5625 3.65625l-1.4375 0l-1.421875 -2.140625l-0.375 -0.59375l-1.8125 2.734375l-1.421875 0zm8.2109375 2.8125l-0.828125 0q1.9375 -3.125 1.9375 -6.265625q0 -1.21875 -0.28125 -2.421875q-0.21875 -0.984375 -0.609375 -1.875q-0.265625 -0.59375 -1.046875 -1.953125l0.828125 0q1.234375 1.640625 1.8125 3.28125q0.5 1.421875 0.5 2.96875q0 1.75 -0.671875 3.390625q-0.671875 1.640625 -1.640625 2.875z" fill-rule="nonzero"/><path fill="#e06666" d="m539.3855 333.49606l141.32288 0l0 53.007874l-141.32288 0z" fill-rule="evenodd"/><path stroke="#ffffff" stroke-width="1.0" stroke-linejoin="round" stroke-linecap="butt" d="m539.3855 333.49606l141.32288 0l0 53.007874l-141.32288 0z" fill-rule="evenodd"/><path fill="#ffffff" d="m570.7813 357.65436q-4.53125 -2.8125 -7.046875 -7.203125l0 4.6875l3.046875 0l0 1.40625l-3.046875 0l0 4.015625l-1.484375 0l0 -4.015625l-2.890625 0l0 -1.40625l2.890625 0l0 -4.6875q-2.15625 4.75 -6.984375 7.578125l-0.8125 -1.5625q5.046875 -2.75 7.203125 -8.015625l-6.453125 0l0 -1.40625l7.046875 0l0 -3.34375l1.40625 0q0.59375 0.078125 0.078125 0.453125l0 2.890625l7.125 0l0 1.40625l-6.609375 0q2.53125 4.53125 7.34375 7.5l-0.8125 1.703125zm8.765625 -1.1875l-4.984375 1.78125q-0.0625 0.515625 -0.359375 0.21875l-0.59375 -1.703125l2.296875 -0.671875l0 -6.0l-2.15625 0l0 -1.421875l2.15625 0l0 -4.15625l1.40625 0q0.59375 0.078125 0.078125 0.453125l0 3.703125l1.921875 0l0 1.421875l-1.921875 0l0 5.640625l2.15625 -0.75l0 1.484375zm8.15625 2.15625q0.75 0 0.96875 -0.75l0.4375 -1.546875l1.640625 0.515625l-0.375 1.40625q-0.4375 1.78125 -2.15625 1.78125l-6.15625 0q-1.328125 0 -1.328125 -1.265625l0 -7.046875l-1.9375 0.75l-0.4375 -1.484375l2.375 -0.828125l0 -4.21875l1.40625 0q0.59375 0.0625 0.078125 0.4375l0 3.265625l1.78125 -0.671875l0 -5.046875l1.40625 0q0.59375 0.078125 0.078125 0.453125l0 4.078125l2.515625 -0.96875l0.15625 -0.296875l1.546875 1.046875l-0.296875 0.21875l0 5.640625q0 1.1875 -1.1875 1.1875l-1.484375 0l-0.359375 -1.40625l1.25 0q0.296875 0 0.296875 -0.296875l0 -4.453125l-2.4375 0.890625l0 6.375l-1.484375 0l0 -5.859375l-1.78125 0.671875l0 6.828125q0 0.59375 0.515625 0.59375l4.96875 0z" fill-rule="nonzero"/><path fill="#ffffff" d="m602.42194 351.63873q-0.296875 2.109375 -0.703125 3.390625q-0.390625 1.265625 -0.984375 2.25q-0.578125 0.984375 -1.34375 1.8125q-0.765625 0.84375 -1.78125 1.65625q-0.734375 -0.8125 -1.671875 -1.171875q1.671875 -0.875 2.578125 -1.859375q0.921875 -0.984375 1.421875 -2.078125q0.515625 -1.09375 0.6875 -1.921875q0.1875 -0.84375 0.34375 -2.078125l-1.46875 0q-1.75 0 -2.40625 0.0625l0 -1.375q1.390625 0.0625 2.265625 0.0625l1.671875 0q0.078125 -0.9375 0.078125 -1.8125l0 -2.125q1.015625 0.296875 1.828125 0.375q-0.21875 1.09375 -0.296875 1.859375q-0.078125 0.765625 -0.140625 1.703125l5.53125 0q-0.140625 1.09375 -0.296875 3.140625q-0.140625 2.03125 -0.21875 3.390625q-0.0625 1.34375 -0.28125 2.140625q-0.21875 0.8125 -1.140625 1.0625q-0.90625 0.25 -2.0 0.40625q-0.21875 -0.875 -0.71875 -1.90625q1.53125 0.078125 1.953125 -0.0625q0.4375 -0.15625 0.546875 -1.28125q0.109375 -1.125 0.25 -2.65625q0.15625 -1.53125 0.234375 -2.984375l-3.9375 0zm-8.53125 9.25q-0.71875 -0.515625 -1.671875 -0.796875q0.875 -1.171875 1.265625 -2.375q0.40625 -1.203125 0.703125 -2.90625q0.296875 -1.71875 0.296875 -3.828125l0 -3.578125q0 -1.453125 -0.15625 -2.546875l11.296875 0q1.609375 0 2.484375 -0.078125l0 1.390625q-0.734375 -0.078125 -1.96875 -0.078125l-10.203125 0q0 4.671875 -0.046875 6.171875q-0.03125 1.484375 -0.21875 2.9375q-0.171875 1.453125 -0.4375 2.40625q-0.25 0.953125 -0.578125 1.78125q-0.328125 0.84375 -0.765625 1.5z" fill-rule="nonzero"/><path fill="#ffffff" d="m620.5313 346.29498l5.71875 0l0 6.90625l-1.484375 0l0 -0.8125l-4.234375 0q0 2.515625 -0.65625 4.375q2.59375 1.640625 7.9375 1.703125l-0.453125 1.796875q-5.40625 -0.234375 -8.375 -2.15625q-2.3125 1.78125 -7.0625 2.375l-0.4375 -1.5625q4.96875 -0.75 6.15625 -1.859375q-1.40625 -1.328125 -2.15625 -2.890625l1.265625 -0.75q0.8125 1.484375 1.859375 2.375q0.4375 -1.40625 0.4375 -3.40625l-4.515625 0l0 1.109375l-1.484375 0l0 -7.203125l6.0 0l0 -2.734375l1.421875 0q0.59375 0.0625 0.0625 0.4375l0 2.296875zm-1.484375 1.421875l-4.515625 0l0 3.265625l4.515625 0l0 -3.265625zm5.71875 3.265625l0 -3.265625l-4.234375 0l0 3.265625l4.234375 0z" fill-rule="nonzero"/><path fill="#ffffff" d="m642.7813 350.60748q-0.078125 1.03125 -0.078125 1.96875l0 1.828125q0.078125 1.3125 -0.765625 1.671875q-0.84375 0.359375 -2.734375 0.578125q-0.4375 -1.3125 -0.796875 -1.671875q2.25 0 2.546875 -0.140625q0.296875 -0.15625 0.296875 -1.09375l0 -1.890625l-5.625 0l0 5.96875q0.078125 0.953125 0.875 0.953125l5.984375 0q0.875 0 1.203125 -0.546875q0.328125 -0.546875 0.390625 -1.796875q0.734375 0.65625 1.6875 0.953125q-0.4375 1.453125 -0.921875 2.078125q-0.46875 0.625 -1.703125 0.625l-7.140625 0q-1.828125 0 -1.828125 -1.75l0 -4.890625q0 -1.234375 -0.078125 -2.84375l8.6875 0zm-3.5 -6.046875q3.0625 4.296875 7.9375 5.609375q-0.796875 0.734375 -1.09375 1.609375q-4.59375 -1.75 -7.578125 -6.125q-2.546875 3.9375 -7.359375 6.640625q-0.296875 -0.59375 -1.234375 -1.3125q3.5 -1.46875 5.5 -3.71875q2.0 -2.265625 2.359375 -3.796875q0.953125 0.296875 1.828125 0.515625l-0.359375 0.578125zm16.828125 4.734375q0.65625 -1.3125 0.875 -2.109375q0.875 0.4375 1.609375 0.65625q-0.515625 0.578125 -1.03125 1.453125l4.515625 0q1.25 0 2.484375 -0.0625l0 1.234375q-1.171875 -0.078125 -2.546875 -0.078125l-4.953125 0q-1.09375 1.75 -1.828125 2.78125l3.0625 0q0 -0.8125 -0.078125 -1.828125l1.53125 0q-0.0625 0.953125 -0.0625 1.828125l2.328125 0q1.15625 0 1.96875 -0.078125l0 1.3125q-0.65625 -0.078125 -2.046875 -0.078125l-2.25 0l0 2.109375l3.34375 0q1.171875 0 2.40625 -0.0625l0 1.3125q-1.171875 -0.078125 -2.40625 -0.078125l-3.34375 0l0 1.390625q0 1.015625 0.0625 1.75l-1.53125 0q0.078125 -0.734375 0.078125 -1.75l0 -1.390625l-3.71875 0q-1.171875 0 -2.6875 0.078125l0 -1.3125q1.375 0.0625 2.6875 0.0625l3.71875 0l0 -2.109375l-2.40625 0q-1.609375 0.078125 -2.1875 0.296875l-0.515625 -1.3125q0.65625 -0.21875 1.234375 -1.09375q0.59375 -0.875 1.171875 -1.828125q-1.8125 0 -3.125 0.078125l0 -1.234375q1.3125 0.0625 3.640625 0.0625zm9.25 -2.25q-1.890625 -0.078125 -2.984375 -0.078125l-10.5625 0q0 4.15625 -0.15625 6.34375q-0.140625 2.1875 -0.46875 4.015625q-0.328125 1.8125 -1.125 3.421875q-0.578125 -0.4375 -1.453125 -0.8125q0.796875 -1.375 1.078125 -2.4375q0.296875 -1.0625 0.484375 -2.515625q0.1875 -1.453125 0.21875 -3.265625q0.03125 -1.828125 -0.03125 -5.84375l6.984375 0q-0.21875 -0.796875 -0.71875 -1.8125q0.796875 -0.21875 1.53125 -0.515625q0.578125 1.3125 0.875 2.328125l3.34375 0q1.171875 0 2.984375 -0.078125l0 1.25z" fill-rule="nonzero"/><path fill="#ffffff" d="m579.24097 375.8l0 -9.546875l4.234375 0q1.265625 0 1.921875 0.265625q0.671875 0.25 1.0625 0.90625q0.40625 0.65625 0.40625 1.4375q0 1.015625 -0.65625 1.71875q-0.65625 0.6875 -2.03125 0.875q0.5 0.25 0.765625 0.484375q0.546875 0.5 1.046875 1.265625l1.65625 2.59375l-1.578125 0l-1.265625 -1.984375q-0.5625 -0.859375 -0.921875 -1.3125q-0.34375 -0.453125 -0.640625 -0.640625q-0.28125 -0.1875 -0.5625 -0.25q-0.21875 -0.046875 -0.703125 -0.046875l-1.46875 0l0 4.234375l-1.265625 0zm1.265625 -5.328125l2.71875 0q0.859375 0 1.34375 -0.171875q0.484375 -0.1875 0.734375 -0.578125q0.265625 -0.390625 0.265625 -0.859375q0 -0.671875 -0.5 -1.109375q-0.484375 -0.4375 -1.546875 -0.4375l-3.015625 0l0 3.15625zm12.922058 3.109375l1.203125 0.140625q-0.28125 1.0625 -1.0625 1.65625q-0.765625 0.578125 -1.96875 0.578125q-1.515625 0 -2.40625 -0.9375q-0.890625 -0.9375 -0.890625 -2.609375q0 -1.75 0.890625 -2.703125q0.90625 -0.96875 2.34375 -0.96875q1.390625 0 2.265625 0.9375q0.875 0.9375 0.875 2.65625q0 0.109375 0 0.3125l-5.15625 0q0.0625 1.140625 0.640625 1.75q0.578125 0.59375 1.4375 0.59375q0.65625 0 1.109375 -0.328125q0.453125 -0.34375 0.71875 -1.078125zm-3.84375 -1.90625l3.859375 0q-0.078125 -0.859375 -0.4375 -1.296875q-0.5625 -0.6875 -1.453125 -0.6875q-0.8125 0 -1.359375 0.546875q-0.546875 0.53125 -0.609375 1.4375zm6.5218506 6.78125l0 -9.5625l1.078125 0l0 0.890625q0.375 -0.53125 0.84375 -0.78125q0.484375 -0.265625 1.15625 -0.265625q0.875 0 1.546875 0.453125q0.6875 0.453125 1.03125 1.28125q0.34375 0.828125 0.34375 1.828125q0 1.046875 -0.375 1.90625q-0.375 0.84375 -1.109375 1.296875q-0.71875 0.453125 -1.53125 0.453125q-0.578125 0 -1.046875 -0.25q-0.46875 -0.25 -0.765625 -0.625l0 3.375l-1.171875 0zm1.0625 -6.078125q0 1.34375 0.53125 1.984375q0.546875 0.625 1.3125 0.625q0.78125 0 1.34375 -0.65625q0.5625 -0.65625 0.5625 -2.046875q0 -1.3125 -0.546875 -1.96875q-0.546875 -0.671875 -1.296875 -0.671875q-0.75 0 -1.328125 0.703125q-0.578125 0.703125 -0.578125 2.03125zm5.9124756 -0.03125q0 -1.921875 1.078125 -2.84375q0.890625 -0.765625 2.171875 -0.765625q1.421875 0 2.328125 0.9375q0.90625 0.921875 0.90625 2.578125q0 1.328125 -0.40625 2.09375q-0.390625 0.765625 -1.15625 1.1875q-0.765625 0.421875 -1.671875 0.421875q-1.453125 0 -2.359375 -0.921875q-0.890625 -0.9375 -0.890625 -2.6875zm1.203125 0q0 1.328125 0.578125 1.984375q0.59375 0.65625 1.46875 0.65625q0.875 0 1.453125 -0.65625q0.578125 -0.671875 0.578125 -2.03125q0 -1.28125 -0.59375 -1.9375q-0.578125 -0.65625 -1.4375 -0.65625q-0.875 0 -1.46875 0.65625q-0.578125 0.65625 -0.578125 1.984375zm6.1781006 1.390625l1.15625 -0.1875q0.109375 0.703125 0.546875 1.078125q0.453125 0.359375 1.25 0.359375q0.8125 0 1.203125 -0.328125q0.390625 -0.328125 0.390625 -0.765625q0 -0.390625 -0.359375 -0.625q-0.234375 -0.15625 -1.1875 -0.390625q-1.296875 -0.328125 -1.796875 -0.5625q-0.484375 -0.25 -0.75 -0.65625q-0.25 -0.421875 -0.25 -0.9375q0 -0.453125 0.203125 -0.84375q0.21875 -0.40625 0.578125 -0.671875q0.28125 -0.1875 0.75 -0.328125q0.46875 -0.140625 1.015625 -0.140625q0.8125 0 1.421875 0.234375q0.609375 0.234375 0.90625 0.640625q0.296875 0.390625 0.40625 1.0625l-1.140625 0.15625q-0.078125 -0.53125 -0.453125 -0.828125q-0.375 -0.3125 -1.0625 -0.3125q-0.8125 0 -1.15625 0.265625q-0.34375 0.265625 -0.34375 0.625q0 0.234375 0.140625 0.421875q0.15625 0.1875 0.453125 0.3125q0.171875 0.0625 1.03125 0.296875q1.25 0.328125 1.734375 0.546875q0.5 0.203125 0.78125 0.609375q0.28125 0.40625 0.28125 1.0q0 0.59375 -0.34375 1.109375q-0.34375 0.515625 -1.0 0.796875q-0.640625 0.28125 -1.453125 0.28125q-1.34375 0 -2.046875 -0.5625q-0.703125 -0.5625 -0.90625 -1.65625zm7.1484375 -6.125l0 -1.359375l1.171875 0l0 1.359375l-1.171875 0zm0 8.1875l0 -6.90625l1.171875 0l0 6.90625l-1.171875 0zm5.5079346 -1.046875l0.171875 1.03125q-0.5 0.109375 -0.890625 0.109375q-0.640625 0 -1.0 -0.203125q-0.34375 -0.203125 -0.484375 -0.53125q-0.140625 -0.328125 -0.140625 -1.390625l0 -3.96875l-0.859375 0l0 -0.90625l0.859375 0l0 -1.71875l1.171875 -0.703125l0 2.421875l1.171875 0l0 0.90625l-1.171875 0l0 4.046875q0 0.5 0.046875 0.640625q0.0625 0.140625 0.203125 0.234375q0.140625 0.078125 0.40625 0.078125q0.203125 0 0.515625 -0.046875zm0.7030029 -2.40625q0 -1.921875 1.078125 -2.84375q0.890625 -0.765625 2.171875 -0.765625q1.421875 0 2.328125 0.9375q0.90625 0.921875 0.90625 2.578125q0 1.328125 -0.40625 2.09375q-0.390625 0.765625 -1.15625 1.1875q-0.765625 0.421875 -1.671875 0.421875q-1.453125 0 -2.359375 -0.921875q-0.890625 -0.9375 -0.890625 -2.6875zm1.203125 0q0 1.328125 0.578125 1.984375q0.59375 0.65625 1.46875 0.65625q0.875 0 1.453125 -0.65625q0.578125 -0.671875 0.578125 -2.03125q0 -1.28125 -0.59375 -1.9375q-0.578125 -0.65625 -1.4375 -0.65625q-0.875 0 -1.46875 0.65625q-0.578125 0.65625 -0.578125 1.984375zm6.6312256 3.453125l0 -6.90625l1.0625 0l0 1.046875q0.40625 -0.734375 0.734375 -0.96875q0.34375 -0.234375 0.765625 -0.234375q0.59375 0 1.203125 0.375l-0.40625 1.078125q-0.4375 -0.25 -0.859375 -0.25q-0.390625 0 -0.703125 0.234375q-0.296875 0.234375 -0.421875 0.640625q-0.203125 0.625 -0.203125 1.359375l0 3.625l-1.171875 0zm4.4071045 2.65625l-0.125 -1.09375q0.375 0.109375 0.65625 0.109375q0.390625 0 0.625 -0.140625q0.234375 -0.125 0.390625 -0.359375q0.109375 -0.171875 0.359375 -0.875q0.03125 -0.09375 0.109375 -0.28125l-2.625 -6.921875l1.265625 0l1.4375 4.0q0.28125 0.765625 0.5 1.59375q0.203125 -0.796875 0.46875 -1.578125l1.484375 -4.015625l1.171875 0l-2.625 7.015625q-0.421875 1.140625 -0.65625 1.578125q-0.3125 0.578125 -0.71875 0.84375q-0.40625 0.28125 -0.96875 0.28125q-0.328125 0 -0.75 -0.15625z" fill-rule="nonzero"/><path fill="#cc4125" d="m780.178 333.49606l141.32288 0l0 53.007874l-141.32288 0z" fill-rule="evenodd"/><path stroke="#ffffff" stroke-width="1.0" stroke-linejoin="round" stroke-linecap="butt" d="m780.178 333.49606l141.32288 0l0 53.007874l-141.32288 0z" fill-rule="evenodd"/><path fill="#ffffff" d="m830.7769 355.27936q-0.65625 2.546875 -2.1875 2.546875l-1.453125 0q-1.75 0 -1.75 -1.671875l0 -5.6875l-2.046875 0q-0.078125 2.984375 -0.4375 4.234375q-0.359375 1.234375 -0.875 1.890625q-0.515625 0.65625 -1.609375 1.453125q-0.28125 -0.515625 -1.09375 -0.953125q0.734375 -0.4375 1.34375 -1.15625q0.625 -0.734375 0.953125 -1.671875q0.328125 -0.953125 0.40625 -3.796875q-1.609375 0 -3.0625 0.078125l0 -1.3125q1.453125 0.0625 2.921875 0.0625l5.671875 0q1.46875 0 2.921875 -0.0625l0 1.3125q-1.453125 -0.078125 -3.71875 -0.078125l0 5.171875q0 0.796875 0.59375 0.875l1.078125 0q0.59375 -0.078125 0.8125 -2.109375q0.65625 0.5 1.53125 0.875zm-16.765625 4.15625q2.265625 -1.6875 3.0625 -1.96875l0 -6.265625q-1.390625 0 -2.625 0.0625l0 -1.375q1.453125 0.0625 2.765625 0.0625l1.234375 0q-0.0625 1.46875 -0.0625 2.265625l0 4.875q1.59375 1.90625 6.03125 1.96875q4.453125 0.078125 6.9375 -0.21875q-0.65625 1.171875 -0.65625 1.6875q-3.0625 0 -5.5 -0.078125q-2.4375 -0.078125 -4.015625 -0.484375q-1.5625 -0.390625 -2.515625 -1.078125q-0.9375 -0.703125 -2.0 0.25q-1.046875 0.953125 -1.484375 1.53125q-0.515625 -0.65625 -1.171875 -1.234375zm15.078125 -12.984375q-1.3125 -0.0625 -4.359375 -0.0625q-3.0625 0 -4.453125 0.0625l0 -1.375q1.390625 0.0625 4.453125 0.0625q3.046875 0 4.359375 -0.0625l0 1.375zm-11.578125 1.46875q-0.734375 -1.25 -2.484375 -2.78125l0.953125 -0.9375q1.890625 1.8125 2.625 2.765625q-0.578125 0.515625 -1.09375 0.953125z" fill-rule="nonzero"/><path fill="#ffffff" d="m839.1363 354.98248l-1.625 -1.859375l0 7.4375l-1.484375 0l0 -7.0625q-1.125 2.078125 -2.375 3.1875l-0.96875 -1.40625q2.515625 -2.453125 3.34375 -5.5625l-2.75 0l0 -1.40625l2.75 0l0 -2.078125l-2.3125 0.359375l-0.4375 -1.484375q3.5625 -0.59375 5.71875 -1.40625l1.03125 1.40625q0.078125 0.53125 -0.4375 0.234375l-2.078125 0.59375l0 2.375l2.671875 0l0 1.40625l-2.671875 0l0 1.484375q1.1875 0.8125 2.734375 2.453125l-1.109375 1.328125zm6.609375 -1.703125l0 1.921875l3.109375 0l0 1.421875l-3.109375 0l0 2.0l4.15625 0l0 1.40625l-10.546875 0l0 -1.40625l4.90625 0l0 -2.0l-3.34375 0l0 -1.421875l3.34375 0l0 -1.921875l-3.640625 0l0 -1.40625l8.765625 0l0 1.40625l-3.640625 0zm1.703125 -7.28125l-4.671875 0l0 2.671875l4.671875 0l0 -2.671875zm0 4.75l0 -0.65625l-4.671875 0l0 0.734375l-1.484375 0l0 -6.234375l7.640625 0l0 6.15625l-1.484375 0z" fill-rule="nonzero"/><path fill="#ffffff" d="m864.5738 350.60748q-0.078125 1.03125 -0.078125 1.96875l0 1.828125q0.078125 1.3125 -0.765625 1.671875q-0.84375 0.359375 -2.734375 0.578125q-0.4375 -1.3125 -0.796875 -1.671875q2.25 0 2.546875 -0.140625q0.296875 -0.15625 0.296875 -1.09375l0 -1.890625l-5.625 0l0 5.96875q0.078125 0.953125 0.875 0.953125l5.984375 0q0.875 0 1.203125 -0.546875q0.328125 -0.546875 0.390625 -1.796875q0.734375 0.65625 1.6875 0.953125q-0.4375 1.453125 -0.921875 2.078125q-0.46875 0.625 -1.703125 0.625l-7.140625 0q-1.828125 0 -1.828125 -1.75l0 -4.890625q0 -1.234375 -0.078125 -2.84375l8.6875 0zm-3.5 -6.046875q3.0625 4.296875 7.9375 5.609375q-0.796875 0.734375 -1.09375 1.609375q-4.59375 -1.75 -7.578125 -6.125q-2.546875 3.9375 -7.359375 6.640625q-0.296875 -0.59375 -1.234375 -1.3125q3.5 -1.46875 5.5 -3.71875q2.0 -2.265625 2.359375 -3.796875q0.953125 0.296875 1.828125 0.515625l-0.359375 0.578125zm16.828125 4.734375q0.65625 -1.3125 0.875 -2.109375q0.875 0.4375 1.609375 0.65625q-0.515625 0.578125 -1.03125 1.453125l4.515625 0q1.25 0 2.484375 -0.0625l0 1.234375q-1.171875 -0.078125 -2.546875 -0.078125l-4.953125 0q-1.09375 1.75 -1.828125 2.78125l3.0625 0q0 -0.8125 -0.078125 -1.828125l1.53125 0q-0.0625 0.953125 -0.0625 1.828125l2.328125 0q1.15625 0 1.96875 -0.078125l0 1.3125q-0.65625 -0.078125 -2.046875 -0.078125l-2.25 0l0 2.109375l3.34375 0q1.171875 0 2.40625 -0.0625l0 1.3125q-1.171875 -0.078125 -2.40625 -0.078125l-3.34375 0l0 1.390625q0 1.015625 0.0625 1.75l-1.53125 0q0.078125 -0.734375 0.078125 -1.75l0 -1.390625l-3.71875 0q-1.171875 0 -2.6875 0.078125l0 -1.3125q1.375 0.0625 2.6875 0.0625l3.71875 0l0 -2.109375l-2.40625 0q-1.609375 0.078125 -2.1875 0.296875l-0.515625 -1.3125q0.65625 -0.21875 1.234375 -1.09375q0.59375 -0.875 1.171875 -1.828125q-1.8125 0 -3.125 0.078125l0 -1.234375q1.3125 0.0625 3.640625 0.0625zm9.25 -2.25q-1.890625 -0.078125 -2.984375 -0.078125l-10.5625 0q0 4.15625 -0.15625 6.34375q-0.140625 2.1875 -0.46875 4.015625q-0.328125 1.8125 -1.125 3.421875q-0.578125 -0.4375 -1.453125 -0.8125q0.796875 -1.375 1.078125 -2.4375q0.296875 -1.0625 0.484375 -2.515625q0.1875 -1.453125 0.21875 -3.265625q0.03125 -1.828125 -0.03125 -5.84375l6.984375 0q-0.21875 -0.796875 -0.71875 -1.8125q0.796875 -0.21875 1.53125 -0.515625q0.578125 1.3125 0.875 2.328125l3.34375 0q1.171875 0 2.984375 -0.078125l0 1.25z" fill-rule="nonzero"/><path fill="#ffffff" d="m828.5523 375.8l0 -9.546875l4.234375 0q1.265625 0 1.921875 0.265625q0.671875 0.25 1.0625 0.90625q0.40625 0.65625 0.40625 1.4375q0 1.015625 -0.65625 1.71875q-0.65625 0.6875 -2.03125 0.875q0.5 0.25 0.765625 0.484375q0.546875 0.5 1.046875 1.265625l1.65625 2.59375l-1.578125 0l-1.265625 -1.984375q-0.5625 -0.859375 -0.921875 -1.3125q-0.34375 -0.453125 -0.640625 -0.640625q-0.28125 -0.1875 -0.5625 -0.25q-0.21875 -0.046875 -0.703125 -0.046875l-1.46875 0l0 4.234375l-1.265625 0zm1.265625 -5.328125l2.71875 0q0.859375 0 1.34375 -0.171875q0.484375 -0.1875 0.734375 -0.578125q0.265625 -0.390625 0.265625 -0.859375q0 -0.671875 -0.5 -1.109375q-0.484375 -0.4375 -1.546875 -0.4375l-3.015625 0l0 3.15625zm12.921997 3.109375l1.203125 0.140625q-0.28125 1.0625 -1.0625 1.65625q-0.765625 0.578125 -1.96875 0.578125q-1.515625 0 -2.40625 -0.9375q-0.890625 -0.9375 -0.890625 -2.609375q0 -1.75 0.890625 -2.703125q0.90625 -0.96875 2.34375 -0.96875q1.390625 0 2.265625 0.9375q0.875 0.9375 0.875 2.65625q0 0.109375 0 0.3125l-5.15625 0q0.0625 1.140625 0.640625 1.75q0.578125 0.59375 1.4375 0.59375q0.65625 0 1.109375 -0.328125q0.453125 -0.34375 0.71875 -1.078125zm-3.84375 -1.90625l3.859375 0q-0.078125 -0.859375 -0.4375 -1.296875q-0.5625 -0.6875 -1.453125 -0.6875q-0.8125 0 -1.359375 0.546875q-0.546875 0.53125 -0.609375 1.4375zm6.5218506 4.125l0 -6.90625l1.046875 0l0 0.96875q0.328125 -0.515625 0.859375 -0.8125q0.546875 -0.3125 1.234375 -0.3125q0.78125 0 1.265625 0.3125q0.484375 0.3125 0.6875 0.890625q0.828125 -1.203125 2.140625 -1.203125q1.03125 0 1.578125 0.578125q0.5625 0.5625 0.5625 1.734375l0 4.75l-1.171875 0l0 -4.359375q0 -0.703125 -0.125 -1.0q-0.109375 -0.3125 -0.40625 -0.5q-0.296875 -0.1875 -0.703125 -0.1875q-0.71875 0 -1.203125 0.484375q-0.484375 0.484375 -0.484375 1.546875l0 4.015625l-1.171875 0l0 -4.484375q0 -0.78125 -0.296875 -1.171875q-0.28125 -0.390625 -0.921875 -0.390625q-0.5 0 -0.921875 0.265625q-0.421875 0.25 -0.609375 0.75q-0.1875 0.5 -0.1875 1.453125l0 3.578125l-1.171875 0zm10.664978 -3.453125q0 -1.921875 1.078125 -2.84375q0.890625 -0.765625 2.171875 -0.765625q1.421875 0 2.328125 0.9375q0.90625 0.921875 0.90625 2.578125q0 1.328125 -0.40625 2.09375q-0.390625 0.765625 -1.15625 1.1875q-0.765625 0.421875 -1.671875 0.421875q-1.453125 0 -2.359375 -0.921875q-0.890625 -0.9375 -0.890625 -2.6875zm1.203125 0q0 1.328125 0.578125 1.984375q0.59375 0.65625 1.46875 0.65625q0.875 0 1.453125 -0.65625q0.578125 -0.671875 0.578125 -2.03125q0 -1.28125 -0.59375 -1.9375q-0.578125 -0.65625 -1.4375 -0.65625q-0.875 0 -1.46875 0.65625q-0.578125 0.65625 -0.578125 1.984375zm9.209351 2.40625l0.171875 1.03125q-0.5 0.109375 -0.890625 0.109375q-0.640625 0 -1.0 -0.203125q-0.34375 -0.203125 -0.484375 -0.53125q-0.140625 -0.328125 -0.140625 -1.390625l0 -3.96875l-0.859375 0l0 -0.90625l0.859375 0l0 -1.71875l1.171875 -0.703125l0 2.421875l1.171875 0l0 0.90625l-1.171875 0l0 4.046875q0 0.5 0.046875 0.640625q0.0625 0.140625 0.203125 0.234375q0.140625 0.078125 0.40625 0.078125q0.203125 0 0.515625 -0.046875zm5.874817 -1.171875l1.203125 0.140625q-0.28125 1.0625 -1.0625 1.65625q-0.765625 0.578125 -1.96875 0.578125q-1.515625 0 -2.40625 -0.9375q-0.890625 -0.9375 -0.890625 -2.609375q0 -1.75 0.890625 -2.703125q0.90625 -0.96875 2.34375 -0.96875q1.390625 0 2.265625 0.9375q0.875 0.9375 0.875 2.65625q0 0.109375 0 0.3125l-5.15625 0q0.0625 1.140625 0.640625 1.75q0.578125 0.59375 1.4375 0.59375q0.65625 0 1.109375 -0.328125q0.453125 -0.34375 0.71875 -1.078125zm-3.84375 -1.90625l3.859375 0q-0.078125 -0.859375 -0.4375 -1.296875q-0.5625 -0.6875 -1.453125 -0.6875q-0.8125 0 -1.359375 0.546875q-0.546875 0.53125 -0.609375 1.4375z" fill-rule="nonzero"/><path fill="#000000" fill-opacity="0.0" d="m199.12335 360.0l99.46457 0" fill-rule="evenodd"/><path stroke="#ff9900" stroke-width="4.0" stroke-linejoin="round" stroke-linecap="butt" d="m199.12335 360.0l75.46457 0" fill-rule="evenodd"/><path fill="#ff9900" stroke="#ff9900" stroke-width="4.0" stroke-linecap="butt" d="m274.58792 366.60693l18.152405 -6.6069336l-18.152405 -6.6069336z" fill-rule="evenodd"/><path fill="#000000" fill-opacity="0.0" d="m439.91586 360.0l99.46457 0" fill-rule="evenodd"/><path stroke="#ff9900" stroke-width="4.0" stroke-linejoin="round" stroke-linecap="butt" d="m439.91583 360.0l75.4646 0" fill-rule="evenodd"/><path fill="#ff9900" stroke="#ff9900" stroke-width="4.0" stroke-linecap="butt" d="m515.38043 366.60693l18.152344 -6.6069336l-18.152344 -6.6069336z" fill-rule="evenodd"/><path fill="#000000" fill-opacity="0.0" d="m680.7084 360.0l99.46454 0" fill-rule="evenodd"/><path stroke="#ff9900" stroke-width="4.0" stroke-linejoin="round" stroke-linecap="butt" d="m680.7083 360.0l75.4646 0" fill-rule="evenodd"/><path fill="#ff9900" stroke="#ff9900" stroke-width="4.0" stroke-linecap="butt" d="m756.1729 366.60693l18.152405 -6.6069336l-18.152405 -6.6069336z" fill-rule="evenodd"/><path fill="#000000" fill-opacity="0.0" d="m212.80052 337.00787l54.99214 0l0 29.984253l-54.99214 0z" fill-rule="evenodd"/><path fill="#ff0000" d="m230.77711 352.0031l-1.671875 -0.3125q0.28125 -1.0 0.96875 -1.46875q0.6875 -0.484375 2.03125 -0.484375q1.21875 0 1.8125 0.296875q0.609375 0.28125 0.84375 0.734375q0.25 0.4375 0.25 1.625l-0.015625 2.140625q0 0.90625 0.078125 1.34375q0.09375 0.421875 0.34375 0.921875l-1.8125 0q-0.078125 -0.1875 -0.171875 -0.546875q-0.046875 -0.15625 -0.078125 -0.203125q-0.46875 0.453125 -1.0 0.6875q-0.53125 0.21875 -1.140625 0.21875q-1.0625 0 -1.6875 -0.578125q-0.609375 -0.578125 -0.609375 -1.46875q0 -0.578125 0.28125 -1.03125q0.28125 -0.46875 0.78125 -0.703125q0.515625 -0.25 1.46875 -0.4375q1.28125 -0.234375 1.765625 -0.453125l0 -0.171875q0 -0.53125 -0.265625 -0.75q-0.25 -0.234375 -0.96875 -0.234375q-0.484375 0 -0.765625 0.203125q-0.265625 0.1875 -0.4375 0.671875zm2.4375 1.484375q-0.34375 0.109375 -1.109375 0.28125q-0.765625 0.15625 -1.0 0.3125q-0.359375 0.25 -0.359375 0.640625q0 0.390625 0.28125 0.671875q0.296875 0.28125 0.734375 0.28125q0.5 0 0.953125 -0.328125q0.328125 -0.25 0.4375 -0.609375q0.0625 -0.234375 0.0625 -0.890625l0 -0.359375zm9.943726 3.3125l-1.703125 0l0 -1.015625q-0.421875 0.59375 -1.0 0.890625q-0.578125 0.28125 -1.15625 0.28125q-1.1875 0 -2.046875 -0.953125q-0.84375 -0.96875 -0.84375 -2.6875q0 -1.75 0.828125 -2.65625q0.828125 -0.921875 2.09375 -0.921875q1.15625 0 2.0 0.953125l0 -3.4375l1.828125 0l0 9.546875zm-4.875 -3.609375q0 1.109375 0.296875 1.609375q0.4375 0.71875 1.234375 0.71875q0.640625 0 1.078125 -0.53125q0.4375 -0.546875 0.4375 -1.609375q0 -1.203125 -0.4375 -1.71875q-0.421875 -0.53125 -1.09375 -0.53125q-0.640625 0 -1.078125 0.515625q-0.4375 0.515625 -0.4375 1.546875zm13.016357 3.609375l-1.703125 0l0 -1.015625q-0.421875 0.59375 -1.0 0.890625q-0.578125 0.28125 -1.15625 0.28125q-1.1875 0 -2.046875 -0.953125q-0.84375 -0.96875 -0.84375 -2.6875q0 -1.75 0.828125 -2.65625q0.828125 -0.921875 2.09375 -0.921875q1.15625 0 2.0 0.953125l0 -3.4375l1.828125 0l0 9.546875zm-4.875 -3.609375q0 1.109375 0.296875 1.609375q0.4375 0.71875 1.234375 0.71875q0.640625 0 1.078125 -0.53125q0.4375 -0.546875 0.4375 -1.609375q0 -1.203125 -0.4375 -1.71875q-0.421875 -0.53125 -1.09375 -0.53125q-0.640625 0 -1.078125 0.515625q-0.4375 0.515625 -0.4375 1.546875z" fill-rule="nonzero"/><path fill="#000000" fill-opacity="0.0" d="m438.7533 337.00787l76.8504 0l0 29.984253l-76.8504 0z" fill-rule="evenodd"/><path fill="#ff0000" d="m460.46442 351.925l-1.796875 0.328125q-0.09375 -0.53125 -0.421875 -0.796875q-0.328125 -0.28125 -0.828125 -0.28125q-0.6875 0 -1.09375 0.46875q-0.40625 0.46875 -0.40625 1.578125q0 1.234375 0.40625 1.75q0.421875 0.5 1.109375 0.5q0.53125 0 0.859375 -0.296875q0.328125 -0.296875 0.46875 -1.03125l1.796875 0.3125q-0.28125 1.234375 -1.078125 1.875q-0.796875 0.625 -2.125 0.625q-1.515625 0 -2.421875 -0.953125q-0.90625 -0.953125 -0.90625 -2.65625q0 -1.703125 0.90625 -2.65625q0.90625 -0.953125 2.453125 -0.953125q1.265625 0 2.0 0.546875q0.75 0.53125 1.078125 1.640625zm0.9593506 1.328125q0 -0.921875 0.453125 -1.765625q0.453125 -0.859375 1.265625 -1.296875q0.828125 -0.453125 1.84375 -0.453125q1.5625 0 2.5625 1.015625q1.015625 1.015625 1.015625 2.578125q0 1.5625 -1.015625 2.59375q-1.015625 1.03125 -2.546875 1.03125q-0.953125 0 -1.8125 -0.421875q-0.859375 -0.4375 -1.3125 -1.265625q-0.453125 -0.828125 -0.453125 -2.015625zm1.875 0.09375q0 1.03125 0.484375 1.578125q0.5 0.546875 1.203125 0.546875q0.71875 0 1.203125 -0.546875q0.484375 -0.546875 0.484375 -1.59375q0 -1.015625 -0.484375 -1.5625q-0.484375 -0.546875 -1.203125 -0.546875q-0.703125 0 -1.203125 0.546875q-0.484375 0.546875 -0.484375 1.578125zm6.5476074 -3.453125l1.6875 0l0 0.9375q0.90625 -1.09375 2.15625 -1.09375q0.671875 0 1.15625 0.28125q0.484375 0.265625 0.796875 0.8125q0.453125 -0.546875 0.984375 -0.8125q0.53125 -0.28125 1.125 -0.28125q0.765625 0 1.28125 0.3125q0.53125 0.296875 0.796875 0.90625q0.1875 0.4375 0.1875 1.421875l0 4.421875l-1.828125 0l0 -3.953125q0 -1.03125 -0.1875 -1.328125q-0.25 -0.390625 -0.78125 -0.390625q-0.390625 0 -0.734375 0.234375q-0.328125 0.234375 -0.484375 0.6875q-0.140625 0.453125 -0.140625 1.4375l0 3.3125l-1.828125 0l0 -3.78125q0 -1.015625 -0.109375 -1.296875q-0.09375 -0.296875 -0.296875 -0.4375q-0.203125 -0.15625 -0.546875 -0.15625q-0.421875 0 -0.765625 0.234375q-0.34375 0.21875 -0.484375 0.65625q-0.140625 0.421875 -0.140625 1.421875l0 3.359375l-1.84375 0l0 -6.90625zm11.85083 0l1.6875 0l0 0.9375q0.90625 -1.09375 2.15625 -1.09375q0.671875 0 1.15625 0.28125q0.484375 0.265625 0.796875 0.8125q0.453125 -0.546875 0.984375 -0.8125q0.53125 -0.28125 1.125 -0.28125q0.765625 0 1.28125 0.3125q0.53125 0.296875 0.796875 0.90625q0.1875 0.4375 0.1875 1.421875l0 4.421875l-1.828125 0l0 -3.953125q0 -1.03125 -0.1875 -1.328125q-0.25 -0.390625 -0.78125 -0.390625q-0.390625 0 -0.734375 0.234375q-0.328125 0.234375 -0.484375 0.6875q-0.140625 0.453125 -0.140625 1.4375l0 3.3125l-1.828125 0l0 -3.78125q0 -1.015625 -0.109375 -1.296875q-0.09375 -0.296875 -0.296875 -0.4375q-0.203125 -0.15625 -0.546875 -0.15625q-0.421875 0 -0.765625 0.234375q-0.34375 0.21875 -0.484375 0.65625q-0.140625 0.421875 -0.140625 1.421875l0 3.359375l-1.84375 0l0 -6.90625zm11.991486 -0.9375l0 -1.703125l1.828125 0l0 1.703125l-1.828125 0zm0 7.84375l0 -6.90625l1.828125 0l0 6.90625l-1.828125 0zm6.8748474 -6.90625l0 1.453125l-1.25 0l0 2.78125q0 0.84375 0.03125 0.984375q0.046875 0.140625 0.171875 0.234375q0.125 0.09375 0.3125 0.09375q0.25 0 0.734375 -0.171875l0.15625 1.421875q-0.640625 0.265625 -1.453125 0.265625q-0.484375 0 -0.890625 -0.15625q-0.390625 -0.171875 -0.578125 -0.4375q-0.1875 -0.265625 -0.265625 -0.71875q-0.046875 -0.3125 -0.046875 -1.28125l0 -3.015625l-0.84375 0l0 -1.453125l0.84375 0l0 -1.375l1.828125 -1.078125l0 2.453125l1.25 0z" fill-rule="nonzero"/><path fill="#000000" fill-opacity="0.0" d="m689.7546 337.00787l54.992126 0l0 29.984253l-54.992126 0z" fill-rule="evenodd"/><path fill="#ff0000" d="m702.23865 349.89374l1.703125 0l0 1.015625q0.328125 -0.53125 0.890625 -0.84375q0.578125 -0.328125 1.265625 -0.328125q1.203125 0 2.03125 0.9375q0.84375 0.9375 0.84375 2.625q0 1.734375 -0.84375 2.703125q-0.84375 0.953125 -2.046875 0.953125q-0.578125 0 -1.046875 -0.21875q-0.453125 -0.234375 -0.96875 -0.796875l0 3.484375l-1.828125 0l0 -9.53125zm1.8125 3.328125q0 1.171875 0.453125 1.734375q0.46875 0.546875 1.125 0.546875q0.640625 0 1.0625 -0.5q0.421875 -0.515625 0.421875 -1.6875q0 -1.078125 -0.4375 -1.609375q-0.4375 -0.53125 -1.078125 -0.53125q-0.671875 0 -1.109375 0.515625q-0.4375 0.515625 -0.4375 1.53125zm10.922607 3.578125l0 -1.03125q-0.375 0.546875 -1.0 0.875q-0.609375 0.3125 -1.28125 0.3125q-0.703125 0 -1.265625 -0.296875q-0.546875 -0.3125 -0.796875 -0.859375q-0.234375 -0.5625 -0.234375 -1.53125l0 -4.375l1.828125 0l0 3.171875q0 1.453125 0.09375 1.78125q0.109375 0.328125 0.375 0.53125q0.265625 0.1875 0.671875 0.1875q0.46875 0 0.84375 -0.25q0.375 -0.265625 0.5 -0.640625q0.140625 -0.390625 0.140625 -1.875l0 -2.90625l1.828125 0l0 6.90625l-1.703125 0zm2.9538574 -1.96875l1.828125 -0.28125q0.125 0.53125 0.484375 0.8125q0.359375 0.265625 1.0 0.265625q0.703125 0 1.0625 -0.25q0.25 -0.1875 0.25 -0.484375q0 -0.21875 -0.140625 -0.359375q-0.125 -0.125 -0.609375 -0.234375q-2.203125 -0.484375 -2.796875 -0.890625q-0.828125 -0.5625 -0.828125 -1.5625q0 -0.890625 0.703125 -1.5q0.71875 -0.609375 2.203125 -0.609375q1.421875 0 2.109375 0.46875q0.703125 0.453125 0.953125 1.359375l-1.71875 0.3125q-0.109375 -0.40625 -0.421875 -0.609375q-0.3125 -0.21875 -0.890625 -0.21875q-0.71875 0 -1.03125 0.203125q-0.203125 0.140625 -0.203125 0.359375q0 0.203125 0.1875 0.34375q0.234375 0.171875 1.6875 0.515625q1.46875 0.328125 2.0625 0.8125q0.5625 0.484375 0.5625 1.359375q0 0.953125 -0.796875 1.640625q-0.78125 0.671875 -2.34375 0.671875q-1.40625 0 -2.234375 -0.5625q-0.828125 -0.578125 -1.078125 -1.5625zm9.881226 -7.578125l0 3.515625q0.875 -1.03125 2.109375 -1.03125q0.640625 0 1.140625 0.234375q0.515625 0.234375 0.765625 0.59375q0.25 0.359375 0.34375 0.8125q0.109375 0.4375 0.109375 1.375l0 4.046875l-1.828125 0l0 -3.65625q0 -1.078125 -0.109375 -1.375q-0.109375 -0.296875 -0.375 -0.46875q-0.265625 -0.171875 -0.65625 -0.171875q-0.453125 0 -0.8125 0.234375q-0.359375 0.21875 -0.53125 0.671875q-0.15625 0.4375 -0.15625 1.296875l0 3.46875l-1.828125 0l0 -9.546875l1.828125 0z" fill-rule="nonzero"/><path fill="#ead1dc" d="m656.86615 333.49606l19.085327 -16.251984l-8.125977 0l0 0c10.171997 -28.702148 45.70697 -48.75589 86.39496 -48.75589l-16.251953 0l0 0c-40.68799 0 -76.22296 20.053741 -86.39496 48.75589l-8.125977 0z" fill-rule="evenodd"/><path fill="#bba7af" d="m746.0945 268.75833l0 0c45.939148 3.06073 81.102356 31.128815 81.102356 64.73773l16.251953 0l0 0c0 -18.270721 -10.553223 -35.697998 -29.075867 -48.015015c-18.522705 -12.317047 -43.304688 -18.386627 -68.27844 -16.722717z" fill-rule="evenodd"/><path fill="#000000" fill-opacity="0.0" d="m746.0945 268.75833l0 0c45.939148 3.06073 81.102356 31.128815 81.102356 64.73773l16.251953 0l0 0c0 -35.902863 -39.948853 -65.00787 -89.22833 -65.00787l-16.251953 0l0 0c-40.68799 0 -76.22296 20.053741 -86.39496 48.75589l-8.125977 0l13.418579 16.251984l19.085327 -16.251984l-8.125977 0l0 0c10.171997 -28.702148 45.70697 -48.75589 86.39496 -48.75589" fill-rule="evenodd"/><path stroke="#000000" stroke-width="1.0" stroke-linejoin="round" stroke-linecap="butt" d="m746.0945 268.75833l0 0c45.939148 3.06073 81.102356 31.128815 81.102356 64.73773l16.251953 0l0 0c0 -35.902863 -39.948853 -65.00787 -89.22833 -65.00787l-16.251953 0l0 0c-40.68799 0 -76.22296 20.053741 -86.39496 48.75589l-8.125977 0l13.418579 16.251984l19.085327 -16.251984l-8.125977 0l0 0c10.171997 -28.702148 45.70697 -48.75589 86.39496 -48.75589" fill-rule="evenodd"/><path fill="#ead1dc" d="m404.48294 333.49606l19.085327 -16.251984l-8.125977 0l0 0c10.171997 -28.702148 45.707 -48.75589 86.39499 -48.75589l-16.251984 0l0 0c-40.687958 0 -76.22296 20.053741 -86.39496 48.75589l-8.126007 0z" fill-rule="evenodd"/><path fill="#bba7af" d="m493.71127 268.75833l0 0c45.93918 3.06073 81.10239 31.128815 81.10239 64.73773l16.251953 0l0 0c0 -18.270721 -10.553223 -35.697998 -29.075928 -48.015015c-18.522644 -12.317047 -43.304626 -18.386627 -68.27841 -16.722717z" fill-rule="evenodd"/><path fill="#000000" fill-opacity="0.0" d="m493.71127 268.75833l0 0c45.93918 3.06073 81.10239 31.128815 81.10239 64.73773l16.251953 0l0 0c0 -35.902863 -39.948914 -65.00787 -89.22833 -65.00787l-16.251984 0l0 0c-40.687958 0 -76.22296 20.053741 -86.39496 48.75589l-8.126007 0l13.41861 16.251984l19.085327 -16.251984l-8.125977 0l0 0c10.171997 -28.702148 45.707 -48.75589 86.39499 -48.75589" fill-rule="evenodd"/><path stroke="#000000" stroke-width="1.0" stroke-linejoin="round" stroke-linecap="butt" d="m493.71127 268.75833l0 0c45.93918 3.06073 81.10239 31.128815 81.10239 64.73773l16.251953 0l0 0c0 -35.902863 -39.948914 -65.00787 -89.22833 -65.00787l-16.251984 0l0 0c-40.687958 0 -76.22296 20.053741 -86.39496 48.75589l-8.126007 0l13.41861 16.251984l19.085327 -16.251984l-8.125977 0l0 0c10.171997 -28.702148 45.707 -48.75589 86.39499 -48.75589" fill-rule="evenodd"/><path fill="#ead1dc" d="m152.09973 333.49606l19.085342 -16.251984l-8.125977 0l0 0c10.171982 -28.702148 45.707 -48.75589 86.39497 -48.75589l-16.251968 0l0 0c-40.687973 0 -76.22299 20.053741 -86.39497 48.75589l-8.125992 0z" fill-rule="evenodd"/><path fill="#bba7af" d="m241.32808 268.75833l0 0c45.939163 3.06073 81.10237 31.128815 81.10237 64.73773l16.251953 0l0 0c0 -18.270721 -10.553253 -35.697998 -29.075897 -48.015015c-18.522675 -12.317047 -43.304657 -18.386627 -68.27843 -16.722717z" fill-rule="evenodd"/><path fill="#000000" fill-opacity="0.0" d="m241.32808 268.75833l0 0c45.939163 3.06073 81.10237 31.128815 81.10237 64.73773l16.251953 0l0 0c0 -35.902863 -39.948883 -65.00787 -89.22833 -65.00787l-16.251968 0l0 0c-40.687973 0 -76.22299 20.053741 -86.39497 48.75589l-8.125992 0l13.418594 16.251984l19.085342 -16.251984l-8.125977 0l0 0c10.171982 -28.702148 45.707 -48.75589 86.39497 -48.75589" fill-rule="evenodd"/><path stroke="#000000" stroke-width="1.0" stroke-linejoin="round" stroke-linecap="butt" d="m241.32808 268.75833l0 0c45.939163 3.06073 81.10237 31.128815 81.10237 64.73773l16.251953 0l0 0c0 -35.902863 -39.948883 -65.00787 -89.22833 -65.00787l-16.251968 0l0 0c-40.687973 0 -76.22299 20.053741 -86.39497 48.75589l-8.125992 0l13.418594 16.251984l19.085342 -16.251984l-8.125977 0l0 0c10.171982 -28.702148 45.707 -48.75589 86.39497 -48.75589" fill-rule="evenodd"/><path fill="#000000" fill-opacity="0.0" d="m698.1873 246.00787l99.4646 0l0 29.984253l-99.4646 0z" fill-rule="evenodd"/><path fill="#ff0000" d="m712.8975 258.89374l1.015625 0l0 -0.53125q0 -0.859375 0.1875 -1.28125q0.1875 -0.4375 0.671875 -0.703125q0.5 -0.28125 1.265625 -0.28125q0.78125 0 1.53125 0.234375l-0.25 1.28125q-0.4375 -0.109375 -0.84375 -0.109375q-0.390625 0 -0.5625 0.1875q-0.171875 0.1875 -0.171875 0.703125l0 0.5l1.359375 0l0 1.4375l-1.359375 0l0 5.46875l-1.828125 0l0 -5.46875l-1.015625 0l0 -1.4375zm9.2352295 4.703125l1.828125 0.3125q-0.34375 1.0 -1.109375 1.53125q-0.765625 0.515625 -1.890625 0.515625q-1.8125 0 -2.671875 -1.171875q-0.6875 -0.953125 -0.6875 -2.390625q0 -1.71875 0.890625 -2.6875q0.90625 -0.96875 2.28125 -0.96875q1.546875 0 2.4375 1.015625q0.890625 1.015625 0.84375 3.125l-4.578125 0q0.015625 0.8125 0.4375 1.265625q0.421875 0.453125 1.0625 0.453125q0.421875 0 0.71875 -0.234375q0.296875 -0.234375 0.4375 -0.765625zm0.109375 -1.84375q-0.015625 -0.796875 -0.40625 -1.203125q-0.390625 -0.421875 -0.953125 -0.421875q-0.59375 0 -0.984375 0.4375q-0.390625 0.4375 -0.390625 1.1875l2.734375 0zm6.4749756 -2.859375l0 1.453125l-1.25 0l0 2.78125q0 0.84375 0.03125 0.984375q0.046875 0.140625 0.171875 0.234375q0.125 0.09375 0.3125 0.09375q0.25 0 0.734375 -0.171875l0.15625 1.421875q-0.640625 0.265625 -1.453125 0.265625q-0.484375 0 -0.890625 -0.15625q-0.390625 -0.171875 -0.578125 -0.4375q-0.1875 -0.265625 -0.265625 -0.71875q-0.046875 -0.3125 -0.046875 -1.28125l0 -3.015625l-0.84375 0l0 -1.453125l0.84375 0l0 -1.375l1.828125 -1.078125l0 2.453125l1.25 0zm7.2977905 2.03125l-1.796875 0.328125q-0.09375 -0.53125 -0.421875 -0.796875q-0.328125 -0.28125 -0.828125 -0.28125q-0.6875 0 -1.09375 0.46875q-0.40625 0.46875 -0.40625 1.578125q0 1.234375 0.40625 1.75q0.421875 0.5 1.109375 0.5q0.53125 0 0.859375 -0.296875q0.328125 -0.296875 0.46875 -1.03125l1.796875 0.3125q-0.28125 1.234375 -1.078125 1.875q-0.796875 0.625 -2.125 0.625q-1.515625 0 -2.421875 -0.953125q-0.90625 -0.953125 -0.90625 -2.65625q0 -1.703125 0.90625 -2.65625q0.90625 -0.953125 2.453125 -0.953125q1.265625 0 2.0 0.546875q0.75 0.53125 1.078125 1.640625zm3.2093506 -4.671875l0 3.515625q0.875 -1.03125 2.109375 -1.03125q0.640625 0 1.140625 0.234375q0.515625 0.234375 0.765625 0.59375q0.25 0.359375 0.34375 0.8125q0.109375 0.4375 0.109375 1.375l0 4.046875l-1.828125 0l0 -3.65625q0 -1.078125 -0.109375 -1.375q-0.109375 -0.296875 -0.375 -0.46875q-0.265625 -0.171875 -0.65625 -0.171875q-0.453125 0 -0.8125 0.234375q-0.359375 0.21875 -0.53125 0.671875q-0.15625 0.4375 -0.15625 1.296875l0 3.46875l-1.828125 0l0 -9.546875l1.828125 0zm5.3444824 9.703125l2.359375 -9.859375l1.375 0l-2.390625 9.859375l-1.34375 0zm10.702942 -5.03125l-1.796875 0.328125q-0.09375 -0.53125 -0.421875 -0.796875q-0.328125 -0.28125 -0.828125 -0.28125q-0.6875 0 -1.09375 0.46875q-0.40625 0.46875 -0.40625 1.578125q0 1.234375 0.40625 1.75q0.421875 0.5 1.109375 0.5q0.53125 0 0.859375 -0.296875q0.328125 -0.296875 0.46875 -1.03125l1.796875 0.3125q-0.28125 1.234375 -1.078125 1.875q-0.796875 0.625 -2.125 0.625q-1.515625 0 -2.421875 -0.953125q-0.90625 -0.953125 -0.90625 -2.65625q0 -1.703125 0.90625 -2.65625q0.90625 -0.953125 2.453125 -0.953125q1.265625 0 2.0 0.546875q0.75 0.53125 1.078125 1.640625zm1.3812256 4.875l0 -9.546875l1.828125 0l0 9.546875l-1.828125 0zm3.281128 -3.546875q0 -0.921875 0.453125 -1.765625q0.453125 -0.859375 1.265625 -1.296875q0.828125 -0.453125 1.84375 -0.453125q1.5625 0 2.5625 1.015625q1.015625 1.015625 1.015625 2.578125q0 1.5625 -1.015625 2.59375q-1.015625 1.03125 -2.546875 1.03125q-0.953125 0 -1.8125 -0.421875q-0.859375 -0.4375 -1.3125 -1.265625q-0.453125 -0.828125 -0.453125 -2.015625zm1.875 0.09375q0 1.03125 0.484375 1.578125q0.5 0.546875 1.203125 0.546875q0.71875 0 1.203125 -0.546875q0.484375 -0.546875 0.484375 -1.59375q0 -1.015625 -0.484375 -1.5625q-0.484375 -0.546875 -1.203125 -0.546875q-0.703125 0 -1.203125 0.546875q-0.484375 0.546875 -0.484375 1.578125zm12.985107 3.453125l-1.828125 0l0 -3.53125q0 -1.109375 -0.125 -1.4375q-0.109375 -0.328125 -0.375 -0.515625q-0.265625 -0.1875 -0.640625 -0.1875q-0.46875 0 -0.859375 0.265625q-0.375 0.265625 -0.515625 0.703125q-0.140625 0.421875 -0.140625 1.578125l0 3.125l-1.828125 0l0 -6.90625l1.703125 0l0 1.015625q0.90625 -1.171875 2.28125 -1.171875q0.609375 0 1.109375 0.21875q0.5 0.21875 0.75 0.5625q0.265625 0.328125 0.359375 0.765625q0.109375 0.421875 0.109375 1.21875l0 4.296875zm5.8444824 -2.203125l1.828125 0.3125q-0.34375 1.0 -1.109375 1.53125q-0.765625 0.515625 -1.890625 0.515625q-1.8125 0 -2.671875 -1.171875q-0.6875 -0.953125 -0.6875 -2.390625q0 -1.71875 0.890625 -2.6875q0.90625 -0.96875 2.28125 -0.96875q1.546875 0 2.4375 1.015625q0.890625 1.015625 0.84375 3.125l-4.578125 0q0.015625 0.8125 0.4375 1.265625q0.421875 0.453125 1.0625 0.453125q0.421875 0 0.71875 -0.234375q0.296875 -0.234375 0.4375 -0.765625zm0.109375 -1.84375q-0.015625 -0.796875 -0.40625 -1.203125q-0.390625 -0.421875 -0.953125 -0.421875q-0.59375 0 -0.984375 0.4375q-0.390625 0.4375 -0.390625 1.1875l2.734375 0z" fill-rule="nonzero"/><path fill="#000000" fill-opacity="0.0" d="m439.917 246.00787l99.4646 0l0 29.984253l-99.4646 0z" fill-rule="evenodd"/><path fill="#ff0000" d="m476.4211 265.8l-1.828125 0l0 -6.90625l1.703125 0l0 0.984375q0.4375 -0.703125 0.78125 -0.921875q0.34375 -0.21875 0.796875 -0.21875q0.625 0 1.203125 0.34375l-0.5625 1.59375q-0.46875 -0.296875 -0.859375 -0.296875q-0.390625 0 -0.65625 0.21875q-0.265625 0.203125 -0.421875 0.765625q-0.15625 0.546875 -0.15625 2.296875l0 2.140625zm7.436798 -2.203125l1.828125 0.3125q-0.34375 1.0 -1.109375 1.53125q-0.765625 0.515625 -1.890625 0.515625q-1.8125 0 -2.671875 -1.171875q-0.6875 -0.953125 -0.6875 -2.390625q0 -1.71875 0.890625 -2.6875q0.90625 -0.96875 2.28125 -0.96875q1.546875 0 2.4375 1.015625q0.890625 1.015625 0.84375 3.125l-4.578125 0q0.015625 0.8125 0.4375 1.265625q0.421875 0.453125 1.0625 0.453125q0.421875 0 0.71875 -0.234375q0.296875 -0.234375 0.4375 -0.765625zm0.109375 -1.84375q-0.015625 -0.796875 -0.40625 -1.203125q-0.390625 -0.421875 -0.953125 -0.421875q-0.59375 0 -0.984375 0.4375q-0.390625 0.4375 -0.390625 1.1875l2.734375 0zm2.6624756 2.078125l1.828125 -0.28125q0.125 0.53125 0.484375 0.8125q0.359375 0.265625 1.0 0.265625q0.703125 0 1.0625 -0.25q0.25 -0.1875 0.25 -0.484375q0 -0.21875 -0.140625 -0.359375q-0.125 -0.125 -0.609375 -0.234375q-2.203125 -0.484375 -2.796875 -0.890625q-0.828125 -0.5625 -0.828125 -1.5625q0 -0.890625 0.703125 -1.5q0.71875 -0.609375 2.203125 -0.609375q1.421875 0 2.109375 0.46875q0.703125 0.453125 0.953125 1.359375l-1.71875 0.3125q-0.109375 -0.40625 -0.421875 -0.609375q-0.3125 -0.21875 -0.890625 -0.21875q-0.71875 0 -1.03125 0.203125q-0.203125 0.140625 -0.203125 0.359375q0 0.203125 0.1875 0.34375q0.234375 0.171875 1.6875 0.515625q1.46875 0.328125 2.0625 0.8125q0.5625 0.484375 0.5625 1.359375q0 0.953125 -0.796875 1.640625q-0.78125 0.671875 -2.34375 0.671875q-1.40625 0 -2.234375 -0.5625q-0.828125 -0.578125 -1.078125 -1.5625zm12.053101 -0.234375l1.828125 0.3125q-0.34375 1.0 -1.109375 1.53125q-0.765625 0.515625 -1.890625 0.515625q-1.8125 0 -2.671875 -1.171875q-0.6875 -0.953125 -0.6875 -2.390625q0 -1.71875 0.890625 -2.6875q0.90625 -0.96875 2.28125 -0.96875q1.546875 0 2.4375 1.015625q0.890625 1.015625 0.84375 3.125l-4.578125 0q0.015625 0.8125 0.4375 1.265625q0.421875 0.453125 1.0625 0.453125q0.421875 0 0.71875 -0.234375q0.296875 -0.234375 0.4375 -0.765625zm0.109375 -1.84375q-0.015625 -0.796875 -0.40625 -1.203125q-0.390625 -0.421875 -0.953125 -0.421875q-0.59375 0 -0.984375 0.4375q-0.390625 0.4375 -0.390625 1.1875l2.734375 0zm6.4749756 -2.859375l0 1.453125l-1.25 0l0 2.78125q0 0.84375 0.03125 0.984375q0.046875 0.140625 0.171875 0.234375q0.125 0.09375 0.3125 0.09375q0.25 0 0.734375 -0.171875l0.15625 1.421875q-0.640625 0.265625 -1.453125 0.265625q-0.484375 0 -0.890625 -0.15625q-0.390625 -0.171875 -0.578125 -0.4375q-0.1875 -0.265625 -0.265625 -0.71875q-0.046875 -0.3125 -0.046875 -1.28125l0 -3.015625l-0.84375 0l0 -1.453125l0.84375 0l0 -1.375l1.828125 -1.078125l0 2.453125l1.25 0z" fill-rule="nonzero"/><path fill="#000000" fill-opacity="0.0" d="m187.5338 246.00787l99.464554 0l0 29.984253l-99.464554 0z" fill-rule="evenodd"/><path fill="#ff0000" d="m214.99428 260.925l-1.796875 0.328125q-0.09375 -0.53125 -0.421875 -0.796875q-0.328125 -0.28125 -0.828125 -0.28125q-0.6875 0 -1.09375 0.46875q-0.40625 0.46875 -0.40625 1.578125q0 1.234375 0.40625 1.75q0.421875 0.5 1.109375 0.5q0.53125 0 0.859375 -0.296875q0.328125 -0.296875 0.46875 -1.03125l1.796875 0.3125q-0.28125 1.234375 -1.078125 1.875q-0.796875 0.625 -2.125 0.625q-1.515625 0 -2.421875 -0.953125q-0.90625 -0.953125 -0.90625 -2.65625q0 -1.703125 0.90625 -2.65625q0.90625 -0.953125 2.453125 -0.953125q1.265625 0 2.0 0.546875q0.75 0.53125 1.078125 1.640625zm3.2093506 -4.671875l0 3.515625q0.875 -1.03125 2.109375 -1.03125q0.640625 0 1.140625 0.234375q0.515625 0.234375 0.765625 0.59375q0.25 0.359375 0.34375 0.8125q0.109375 0.4375 0.109375 1.375l0 4.046875l-1.828125 0l0 -3.65625q0 -1.078125 -0.109375 -1.375q-0.109375 -0.296875 -0.375 -0.46875q-0.265625 -0.171875 -0.65625 -0.171875q-0.453125 0 -0.8125 0.234375q-0.359375 0.21875 -0.53125 0.671875q-0.15625 0.4375 -0.15625 1.296875l0 3.46875l-1.828125 0l0 -9.546875l1.828125 0zm10.313232 7.34375l1.828125 0.3125q-0.34375 1.0 -1.109375 1.53125q-0.765625 0.515625 -1.890625 0.515625q-1.8125 0 -2.671875 -1.171875q-0.6875 -0.953125 -0.6875 -2.390625q0 -1.71875 0.890625 -2.6875q0.90625 -0.96875 2.28125 -0.96875q1.546875 0 2.4375 1.015625q0.890625 1.015625 0.84375 3.125l-4.578125 0q0.015625 0.8125 0.4375 1.265625q0.421875 0.453125 1.0625 0.453125q0.421875 0 0.71875 -0.234375q0.296875 -0.234375 0.4375 -0.765625zm0.109375 -1.84375q-0.015625 -0.796875 -0.40625 -1.203125q-0.390625 -0.421875 -0.953125 -0.421875q-0.59375 0 -0.984375 0.4375q-0.390625 0.4375 -0.390625 1.1875l2.734375 0zm9.334351 -0.828125l-1.796875 0.328125q-0.09375 -0.53125 -0.421875 -0.796875q-0.328125 -0.28125 -0.828125 -0.28125q-0.6875 0 -1.09375 0.46875q-0.40625 0.46875 -0.40625 1.578125q0 1.234375 0.40625 1.75q0.421875 0.5 1.109375 0.5q0.53125 0 0.859375 -0.296875q0.328125 -0.296875 0.46875 -1.03125l1.796875 0.3125q-0.28125 1.234375 -1.078125 1.875q-0.796875 0.625 -2.125 0.625q-1.515625 0 -2.421875 -0.953125q-0.90625 -0.953125 -0.90625 -2.65625q0 -1.703125 0.90625 -2.65625q0.90625 -0.953125 2.453125 -0.953125q1.265625 0 2.0 0.546875q0.75 0.53125 1.078125 1.640625zm1.3187256 4.875l0 -9.546875l1.828125 0l0 5.0625l2.140625 -2.421875l2.25 0l-2.359375 2.515625l2.53125 4.390625l-1.96875 0l-1.734375 -3.109375l-0.859375 0.890625l0 2.21875l-1.828125 0zm7.0531006 -3.546875q0 -0.921875 0.453125 -1.765625q0.453125 -0.859375 1.265625 -1.296875q0.828125 -0.453125 1.84375 -0.453125q1.5625 0 2.5625 1.015625q1.015625 1.015625 1.015625 2.578125q0 1.5625 -1.015625 2.59375q-1.015625 1.03125 -2.546875 1.03125q-0.953125 0 -1.8125 -0.421875q-0.859375 -0.4375 -1.3125 -1.265625q-0.453125 -0.828125 -0.453125 -2.015625zm1.875 0.09375q0 1.03125 0.484375 1.578125q0.5 0.546875 1.203125 0.546875q0.71875 0 1.203125 -0.546875q0.484375 -0.546875 0.484375 -1.59375q0 -1.015625 -0.484375 -1.5625q-0.484375 -0.546875 -1.203125 -0.546875q-0.703125 0 -1.203125 0.546875q-0.484375 0.546875 -0.484375 1.578125zm11.235123 3.453125l0 -1.03125q-0.375 0.546875 -1.0 0.875q-0.609375 0.3125 -1.28125 0.3125q-0.703125 0 -1.2656403 -0.296875q-0.546875 -0.3125 -0.796875 -0.859375q-0.234375 -0.5625 -0.234375 -1.53125l0 -4.375l1.8281403 0l0 3.171875q0 1.453125 0.09375 1.78125q0.109375 0.328125 0.375 0.53125q0.265625 0.1875 0.671875 0.1875q0.46875 0 0.84375 -0.25q0.375 -0.265625 0.5 -0.640625q0.140625 -0.390625 0.140625 -1.875l0 -2.90625l1.828125 0l0 6.90625l-1.703125 0zm6.7663574 -6.90625l0 1.453125l-1.25 0l0 2.78125q0 0.84375 0.03125 0.984375q0.046875 0.140625 0.171875 0.234375q0.125 0.09375 0.3125 0.09375q0.25 0 0.734375 -0.171875l0.15625 1.421875q-0.640625 0.265625 -1.453125 0.265625q-0.484375 0 -0.890625 -0.15625q-0.390625 -0.171875 -0.578125 -0.4375q-0.1875 -0.265625 -0.265625 -0.71875q-0.046875 -0.3125 -0.046875 -1.28125l0 -3.015625l-0.84375 0l0 -1.453125l0.84375 0l0 -1.375l1.828125 -1.078125l0 2.453125l1.25 0z" fill-rule="nonzero"/><path fill="#ead1dc" d="m140.10498 386.50394l24.581055 17.503937l-8.751968 0c25.407318 30.913239 114.165665 52.51181 215.79494 52.51181l-17.503937 0l0 0c-101.62927 0 -190.38762 -21.598572 -215.79494 -52.51181l-8.751968 0z" fill-rule="evenodd"/><path fill="#bba7af" d="m362.97702 456.46567l0 0c119.59152 -1.476471 214.12009 -32.362793 214.12009 -69.96173l17.503967 0l0 0c0 19.046295 -24.699219 37.27063 -68.403015 50.471313c-43.703827 13.200684 -102.6402 20.238373 -163.22104 19.490417z" fill-rule="evenodd"/><path fill="#000000" fill-opacity="0.0" d="m362.97702 456.46567l0 0c119.59152 -1.476471 214.12009 -32.362793 214.12009 -69.96173l17.503967 0l0 0c0 38.66864 -99.78323 70.01575 -222.87207 70.01575l-17.503937 0l0 0c-101.62927 0 -190.38762 -21.598572 -215.79494 -52.51181l-8.751968 0l10.426819 -17.503937l24.581055 17.503937l-8.751968 0c25.407318 30.913239 114.165665 52.51181 215.79494 52.51181" fill-rule="evenodd"/><path stroke="#000000" stroke-width="1.0" stroke-linejoin="round" stroke-linecap="butt" d="m362.97702 456.46567l0 0c119.59152 -1.476471 214.12009 -32.362793 214.12009 -69.96173l17.503967 0l0 0c0 38.66864 -99.78323 70.01575 -222.87207 70.01575l-17.503937 0l0 0c-101.62927 0 -190.38762 -21.598572 -215.79494 -52.51181l-8.751968 0l10.426819 -17.503937l24.581055 17.503937l-8.751968 0c25.407318 30.913239 114.165665 52.51181 215.79494 52.51181" fill-rule="evenodd"/><path fill="#000000" fill-opacity="0.0" d="m314.53378 434.53543l99.46457 0l0 29.984253l-99.46457 0z" fill-rule="evenodd"/><path fill="#ff0000" d="m341.9943 449.45255l-1.796875 0.328125q-0.09375 -0.53125 -0.421875 -0.796875q-0.328125 -0.28125 -0.828125 -0.28125q-0.6875 0 -1.09375 0.46875q-0.40625 0.46875 -0.40625 1.578125q0 1.234375 0.40625 1.75q0.421875 0.5 1.109375 0.5q0.53125 0 0.859375 -0.296875q0.328125 -0.296875 0.46875 -1.03125l1.796875 0.3125q-0.28125 1.234375 -1.078125 1.875q-0.796875 0.625 -2.125 0.625q-1.515625 0 -2.421875 -0.953125q-0.90625 -0.953125 -0.90625 -2.65625q0 -1.703125 0.90625 -2.65625q0.90625 -0.953125 2.453125 -0.953125q1.265625 0 2.0 0.546875q0.75 0.53125 1.078125 1.640625zm3.2093506 -4.671875l0 3.515625q0.875 -1.03125 2.109375 -1.03125q0.640625 0 1.140625 0.234375q0.515625 0.234375 0.765625 0.59375q0.25 0.359375 0.34375 0.8125q0.109375 0.4375 0.109375 1.375l0 4.046875l-1.828125 0l0 -3.65625q0 -1.078125 -0.109375 -1.375q-0.109375 -0.296875 -0.375 -0.46875q-0.265625 -0.171875 -0.65625 -0.171875q-0.453125 0 -0.8125 0.234375q-0.359375 0.21875 -0.53125 0.671875q-0.15625 0.4375 -0.15625 1.296875l0 3.46875l-1.828125 0l0 -9.546875l1.828125 0zm10.313232 7.34375l1.828125 0.3125q-0.34375 1.0 -1.109375 1.53125q-0.765625 0.515625 -1.890625 0.515625q-1.8125 0 -2.671875 -1.171875q-0.6875 -0.953125 -0.6875 -2.390625q0 -1.71875 0.890625 -2.6875q0.90625 -0.96875 2.28125 -0.96875q1.546875 0 2.4375 1.015625q0.890625 1.015625 0.84375 3.125l-4.578125 0q0.015625 0.8125 0.4375 1.265625q0.421875 0.453125 1.0625 0.453125q0.421875 0 0.71875 -0.234375q0.296875 -0.234375 0.4375 -0.765625zm0.109375 -1.84375q-0.015625 -0.796875 -0.40625 -1.203125q-0.390625 -0.421875 -0.953125 -0.421875q-0.59375 0 -0.984375 0.4375q-0.390625 0.4375 -0.390625 1.1875l2.734375 0zm9.334351 -0.828125l-1.796875 0.328125q-0.09375 -0.53125 -0.421875 -0.796875q-0.328125 -0.28125 -0.828125 -0.28125q-0.6875 0 -1.09375 0.46875q-0.40625 0.46875 -0.40625 1.578125q0 1.234375 0.40625 1.75q0.421875 0.5 1.109375 0.5q0.53125 0 0.859375 -0.296875q0.328125 -0.296875 0.46875 -1.03125l1.796875 0.3125q-0.28125 1.234375 -1.078125 1.875q-0.796875 0.625 -2.125 0.625q-1.515625 0 -2.421875 -0.953125q-0.90625 -0.953125 -0.90625 -2.65625q0 -1.703125 0.90625 -2.65625q0.90625 -0.953125 2.453125 -0.953125q1.265625 0 2.0 0.546875q0.75 0.53125 1.078125 1.640625zm1.3187256 4.875l0 -9.546875l1.828125 0l0 5.0625l2.140625 -2.421875l2.25 0l-2.359375 2.515625l2.53125 4.390625l-1.96875 0l-1.734375 -3.109375l-0.859375 0.890625l0 2.21875l-1.828125 0zm7.0531006 -3.546875q0 -0.921875 0.453125 -1.765625q0.453125 -0.859375 1.265625 -1.296875q0.828125 -0.453125 1.84375 -0.453125q1.5625 0 2.5625 1.015625q1.015625 1.015625 1.015625 2.578125q0 1.5625 -1.015625 2.59375q-1.015625 1.03125 -2.546875 1.03125q-0.953125 0 -1.8125 -0.421875q-0.859375 -0.4375 -1.3125 -1.265625q-0.453125 -0.828125 -0.453125 -2.015625zm1.875 0.09375q0 1.03125 0.484375 1.578125q0.5 0.546875 1.203125 0.546875q0.71875 0 1.203125 -0.546875q0.484375 -0.546875 0.484375 -1.59375q0 -1.015625 -0.484375 -1.5625q-0.484375 -0.546875 -1.203125 -0.546875q-0.703125 0 -1.203125 0.546875q-0.484375 0.546875 -0.484375 1.578125zm11.235107 3.453125l0 -1.03125q-0.375 0.546875 -1.0 0.875q-0.609375 0.3125 -1.28125 0.3125q-0.703125 0 -1.265625 -0.296875q-0.546875 -0.3125 -0.796875 -0.859375q-0.234375 -0.5625 -0.234375 -1.53125l0 -4.375l1.828125 0l0 3.171875q0 1.453125 0.09375 1.78125q0.109375 0.328125 0.375 0.53125q0.265625 0.1875 0.671875 0.1875q0.46875 0 0.84375 -0.25q0.375 -0.265625 0.5 -0.640625q0.140625 -0.390625 0.140625 -1.875l0 -2.90625l1.828125 0l0 6.90625l-1.703125 0zm6.7663574 -6.90625l0 1.453125l-1.25 0l0 2.78125q0 0.84375 0.03125 0.984375q0.046875 0.140625 0.171875 0.234375q0.125 0.09375 0.3125 0.09375q0.25 0 0.734375 -0.171875l0.15625 1.421875q-0.640625 0.265625 -1.453125 0.265625q-0.484375 0 -0.890625 -0.15625q-0.390625 -0.171875 -0.578125 -0.4375q-0.1875 -0.265625 -0.265625 -0.71875q-0.046875 -0.3125 -0.046875 -1.28125l0 -3.015625l-0.84375 0l0 -1.453125l0.84375 0l0 -1.375l1.828125 -1.078125l0 2.453125l1.25 0z" fill-rule="nonzero"/><path fill="#000000" fill-opacity="0.0" d="m921.50085 360.0l25.003662 0l0 110.49606l-923.9012 0l0 -110.433075l35.21244 0" fill-rule="evenodd"/><path stroke="#ff9900" stroke-width="4.0" stroke-linejoin="round" stroke-linecap="butt" d="m921.5008 360.0l25.003723 0l0 110.49606l-923.9012 0l0 -110.433075l11.212439 0" fill-rule="evenodd"/><path fill="#ff9900" stroke="#ff9900" stroke-width="4.0" stroke-linecap="butt" d="m33.815804 366.66992l18.15239 -6.6069336l-18.15239 -6.6069336z" fill-rule="evenodd"/><path fill="#000000" fill-opacity="0.0" d="m680.70734 444.00787l54.992126 0l0 29.984253l-54.992126 0z" fill-rule="evenodd"/><path fill="#ff0000" d="m697.2653 456.89374l1.703125 0l0 1.015625q0.328125 -0.53125 0.890625 -0.84375q0.578125 -0.328125 1.265625 -0.328125q1.203125 0 2.03125 0.9375q0.84375 0.9375 0.84375 2.625q0 1.734375 -0.84375 2.703125q-0.84375 0.953125 -2.046875 0.953125q-0.578125 0 -1.046875 -0.21875q-0.453125 -0.234375 -0.96875 -0.796875l0 3.484375l-1.828125 0l0 -9.53125zm1.8125 3.328125q0 1.171875 0.453125 1.734375q0.46875 0.546875 1.125 0.546875q0.640625 0 1.0625 -0.5q0.421875 -0.515625 0.421875 -1.6875q0 -1.078125 -0.4375 -1.609375q-0.4375 -0.53125 -1.078125 -0.53125q-0.671875 0 -1.109375 0.515625q-0.4375 0.515625 -0.4375 1.53125zm10.922607 3.578125l0 -1.03125q-0.375 0.546875 -1.0 0.875q-0.609375 0.3125 -1.28125 0.3125q-0.703125 0 -1.265625 -0.296875q-0.546875 -0.3125 -0.796875 -0.859375q-0.234375 -0.5625 -0.234375 -1.53125l0 -4.375l1.828125 0l0 3.171875q0 1.453125 0.09375 1.78125q0.109375 0.328125 0.375 0.53125q0.265625 0.1875 0.671875 0.1875q0.46875 0 0.84375 -0.25q0.375 -0.265625 0.5 -0.640625q0.140625 -0.390625 0.140625 -1.875l0 -2.90625l1.828125 0l0 6.90625l-1.703125 0zm3.5944824 0l0 -9.546875l1.828125 0l0 9.546875l-1.828125 0zm3.703003 0l0 -9.546875l1.828125 0l0 9.546875l-1.828125 0z" fill-rule="nonzero"/><path fill="#cfe2f3" d="m749.21783 399.01572l0 52.121124l6.1569824 0l0 -44.370514l13.960083 44.370514l5.761841 0l14.02594 -43.6239l0 43.6239l6.1569214 0l0 -52.121124l-8.593384 0l-11.55658 36.264343c-1.1633301 3.6738281 -2.0193481 6.4588623 -2.5681152 8.355011c-0.48291016 -1.706543 -1.2511597 -4.2782288 -2.3047485 -7.7150574l-11.424866 -36.904297z" fill-rule="evenodd"/><path fill="#cfe2f3" d="m804.8607 399.01572l0 7.3595276l5.9264526 0l0 -7.3595276zm0 14.363525l0 37.7576l5.9264526 0l0 -37.7576z" fill-rule="evenodd"/><path fill="#cfe2f3" d="m836.27094 412.52597c-4.850891 0 -8.560425 2.073944 -11.12854 6.2218018l0 -5.3685303l-5.3338623 0l0 37.7576l5.9265137 0l0 -20.62091c0 -4.835266 0.9145508 -8.118011 2.7437134 -9.848267c1.8364868 -1.7302551 4.0167847 -2.595398 6.5410156 -2.595398c1.5804443 0 2.9559326 0.387146 4.126587 1.1614075c1.1779785 0.76638794 1.9974365 1.7974243 2.458374 3.0931396c0.4609375 1.2878113 0.6914673 3.2353516 0.6914673 5.8425903l0 22.967438l5.9264526 0l0 -23.216309c0 -2.9627686 -0.109802246 -5.0367126 -0.32928467 -6.2218323c-0.3511963 -1.8250732 -0.9657593 -3.401245 -1.84375 -4.7285767c-0.8779907 -1.3273315 -2.2023315 -2.3978882 -3.9729614 -3.2116394c-1.7633057 -0.8216858 -3.6985474 -1.2325134 -5.805725 -1.2325134z" fill-rule="evenodd"/><path fill="#cfe2f3" d="m857.17816 413.37924l0 23.394043c0 2.725769 0.12072754 4.716736 0.36218262 5.9729614c0.3511963 1.872467 0.9584961 3.4565735 1.8218384 4.752289c0.8706665 1.2878113 2.1986084 2.358368 3.9838867 3.2116394c1.7926025 0.853302 3.72052 1.2799377 5.7838135 1.2799377c4.675293 0 8.37384 -2.1332092 11.095642 -6.399597l0 5.5463257l5.3008423 0l0 -37.7576l-5.9264526 0l0 20.229828c0 3.2234802 -0.32556152 5.6845703 -0.9767456 7.383209c-0.64385986 1.6907654 -1.7449951 3.0299377 -3.3034668 4.017517c-1.5584106 0.9797058 -3.2266235 1.4695435 -5.0045776 1.4695435c-1.7778931 0 -3.2705078 -0.47799683 -4.477722 -1.4339905c-1.2072754 -0.9638672 -1.9974365 -2.287262 -2.3706055 -3.9700928c-0.24145508 -1.1614075 -0.36218262 -3.4131165 -0.36218262 -6.755127l0 -20.940887z" fill-rule="evenodd"/><path fill="#cfe2f3" d="m906.30194 412.52597c-1.8218384 0 -3.5302734 0.2567749 -5.125305 0.7703247c-1.5877075 0.50564575 -2.8425293 1.125824 -3.7644043 1.8605957c-1.229187 0.9480896 -2.2022705 2.1411133 -2.9193115 3.5790405c-0.7097168 1.4300232 -1.0645752 2.9864807 -1.0645752 4.669342c0 1.8487549 0.43170166 3.5395203 1.295044 5.0722656c0.8706665 1.5248413 2.1437378 2.7218018 3.819275 3.5908813c1.6828003 0.86117554 4.6972656 1.8843079 9.043335 3.0694275c3.2266235 0.87698364 5.2460327 1.599884 6.0581665 2.1687622c1.1633301 0.8295593 1.7449951 1.9672546 1.7449951 3.4131165c0 1.6117249 -0.6585083 3.0180664 -1.9754639 4.2189636c-1.3170166 1.1930237 -3.3364258 1.7895203 -6.0581665 1.7895203c-2.699829 0 -4.8033447 -0.6755066 -6.310608 -2.0265198c-1.4998779 -1.3510437 -2.4144897 -3.2946167 -2.7437134 -5.8307495l-5.8605957 0.9954834c0.65844727 4.0056763 2.1766968 7.02771 4.5545654 9.066101c2.385254 2.038391 5.8496704 3.0575867 10.3932495 3.0575867c2.7437134 0 5.2021484 -0.5135498 7.375183 -1.5406494c2.1730347 -1.0350037 3.8338623 -2.4926758 4.982605 -4.373047c1.1560059 -1.8882751 1.7340088 -3.8990173 1.7340088 -6.0322266c0 -2.180603 -0.47192383 -4.0056458 -1.4157715 -5.475189c-0.94384766 -1.4695435 -2.2461548 -2.587494 -3.9070435 -3.3538513c-1.6535645 -0.774292 -4.576538 -1.7658386 -8.768982 -2.97464c-2.8973389 -0.8532715 -4.642395 -1.3984375 -5.2350464 -1.635437c-1.0316162 -0.4503479 -1.7888794 -1.0191956 -2.2717896 -1.7065735c-0.48291016 -0.6636658 -0.72436523 -1.4102783 -0.72436523 -2.2398682c0 -1.3036194 0.58166504 -2.4413147 1.7450562 -3.413086c1.1633301 -0.97180176 3.105896 -1.4577026 5.8276367 -1.4577026c2.3047485 0 4.0863647 0.545166 5.3447876 1.6354675c1.2658081 1.0903015 2.0303955 2.6072388 2.2937622 4.550812l5.7948 -0.8532715c-0.37316895 -2.4413452 -1.0535889 -4.388855 -2.0413818 -5.8425903c-0.98773193 -1.4616394 -2.5205688 -2.61911 -4.5984497 -3.4723816c-2.0706177 -0.8532715 -4.477783 -1.2799072 -7.2214966 -1.2799072z" fill-rule="evenodd"/><path stroke="#000000" stroke-width="1.0" stroke-linejoin="round" stroke-linecap="butt" d="m749.21783 399.01572l0 52.121124l6.1569824 0l0 -44.370514l13.960083 44.370514l5.761841 0l14.02594 -43.6239l0 43.6239l6.1569214 0l0 -52.121124l-8.593384 0l-11.55658 36.264343c-1.1633301 3.6738281 -2.0193481 6.4588623 -2.5681152 8.355011c-0.48291016 -1.706543 -1.2511597 -4.2782288 -2.3047485 -7.7150574l-11.424866 -36.904297z" fill-rule="evenodd"/><path stroke="#000000" stroke-width="1.0" stroke-linejoin="round" stroke-linecap="butt" d="m804.8607 399.01572l0 7.3595276l5.9264526 0l0 -7.3595276zm0 14.363525l0 37.7576l5.9264526 0l0 -37.7576z" fill-rule="evenodd"/><path stroke="#000000" stroke-width="1.0" stroke-linejoin="round" stroke-linecap="butt" d="m836.27094 412.52597c-4.850891 0 -8.560425 2.073944 -11.12854 6.2218018l0 -5.3685303l-5.3338623 0l0 37.7576l5.9265137 0l0 -20.62091c0 -4.835266 0.9145508 -8.118011 2.7437134 -9.848267c1.8364868 -1.7302551 4.0167847 -2.595398 6.5410156 -2.595398c1.5804443 0 2.9559326 0.387146 4.126587 1.1614075c1.1779785 0.76638794 1.9974365 1.7974243 2.458374 3.0931396c0.4609375 1.2878113 0.6914673 3.2353516 0.6914673 5.8425903l0 22.967438l5.9264526 0l0 -23.216309c0 -2.9627686 -0.109802246 -5.0367126 -0.32928467 -6.2218323c-0.3511963 -1.8250732 -0.9657593 -3.401245 -1.84375 -4.7285767c-0.8779907 -1.3273315 -2.2023315 -2.3978882 -3.9729614 -3.2116394c-1.7633057 -0.8216858 -3.6985474 -1.2325134 -5.805725 -1.2325134z" fill-rule="evenodd"/><path stroke="#000000" stroke-width="1.0" stroke-linejoin="round" stroke-linecap="butt" d="m857.17816 413.37924l0 23.394043c0 2.725769 0.12072754 4.716736 0.36218262 5.9729614c0.3511963 1.872467 0.9584961 3.4565735 1.8218384 4.752289c0.8706665 1.2878113 2.1986084 2.358368 3.9838867 3.2116394c1.7926025 0.853302 3.72052 1.2799377 5.7838135 1.2799377c4.675293 0 8.37384 -2.1332092 11.095642 -6.399597l0 5.5463257l5.3008423 0l0 -37.7576l-5.9264526 0l0 20.229828c0 3.2234802 -0.32556152 5.6845703 -0.9767456 7.383209c-0.64385986 1.6907654 -1.7449951 3.0299377 -3.3034668 4.017517c-1.5584106 0.9797058 -3.2266235 1.4695435 -5.0045776 1.4695435c-1.7778931 0 -3.2705078 -0.47799683 -4.477722 -1.4339905c-1.2072754 -0.9638672 -1.9974365 -2.287262 -2.3706055 -3.9700928c-0.24145508 -1.1614075 -0.36218262 -3.4131165 -0.36218262 -6.755127l0 -20.940887z" fill-rule="evenodd"/><path stroke="#000000" stroke-width="1.0" stroke-linejoin="round" stroke-linecap="butt" d="m906.30194 412.52597c-1.8218384 0 -3.5302734 0.2567749 -5.125305 0.7703247c-1.5877075 0.50564575 -2.8425293 1.125824 -3.7644043 1.8605957c-1.229187 0.9480896 -2.2022705 2.1411133 -2.9193115 3.5790405c-0.7097168 1.4300232 -1.0645752 2.9864807 -1.0645752 4.669342c0 1.8487549 0.43170166 3.5395203 1.295044 5.0722656c0.8706665 1.5248413 2.1437378 2.7218018 3.819275 3.5908813c1.6828003 0.86117554 4.6972656 1.8843079 9.043335 3.0694275c3.2266235 0.87698364 5.2460327 1.599884 6.0581665 2.1687622c1.1633301 0.8295593 1.7449951 1.9672546 1.7449951 3.4131165c0 1.6117249 -0.6585083 3.0180664 -1.9754639 4.2189636c-1.3170166 1.1930237 -3.3364258 1.7895203 -6.0581665 1.7895203c-2.699829 0 -4.8033447 -0.6755066 -6.310608 -2.0265198c-1.4998779 -1.3510437 -2.4144897 -3.2946167 -2.7437134 -5.8307495l-5.8605957 0.9954834c0.65844727 4.0056763 2.1766968 7.02771 4.5545654 9.066101c2.385254 2.038391 5.8496704 3.0575867 10.3932495 3.0575867c2.7437134 0 5.2021484 -0.5135498 7.375183 -1.5406494c2.1730347 -1.0350037 3.8338623 -2.4926758 4.982605 -4.373047c1.1560059 -1.8882751 1.7340088 -3.8990173 1.7340088 -6.0322266c0 -2.180603 -0.47192383 -4.0056458 -1.4157715 -5.475189c-0.94384766 -1.4695435 -2.2461548 -2.587494 -3.9070435 -3.3538513c-1.6535645 -0.774292 -4.576538 -1.7658386 -8.768982 -2.97464c-2.8973389 -0.8532715 -4.642395 -1.3984375 -5.2350464 -1.635437c-1.0316162 -0.4503479 -1.7888794 -1.0191956 -2.2717896 -1.7065735c-0.48291016 -0.6636658 -0.72436523 -1.4102783 -0.72436523 -2.2398682c0 -1.3036194 0.58166504 -2.4413147 1.7450562 -3.413086c1.1633301 -0.97180176 3.105896 -1.4577026 5.8276367 -1.4577026c2.3047485 0 4.0863647 0.545166 5.3447876 1.6354675c1.2658081 1.0903015 2.0303955 2.6072388 2.2937622 4.550812l5.7948 -0.8532715c-0.37316895 -2.4413452 -1.0535889 -4.388855 -2.0413818 -5.8425903c-0.98773193 -1.4616394 -2.5205688 -2.61911 -4.5984497 -3.4723816c-2.0706177 -0.8532715 -4.477783 -1.2799072 -7.2214966 -1.2799072z" fill-rule="evenodd"/></g></svg>